<?xml version="1.0" encoding="UTF-8"?>
<svg id="Layer_2" data-name="Layer 2" xmlns="http://www.w3.org/2000/svg" xmlns:xlink="http://www.w3.org/1999/xlink" viewBox="0 0 1675 1450">
  <defs>
    <style>
      .cls-1 {
        clip-path: url(#clippath);
      }

      .cls-2 {
        stroke-width: 0px;
      }

      .cls-2, .cls-3 {
        fill: none;
      }

      .cls-3 {
        opacity: .15;
        stroke: #fff;
        stroke-miterlimit: 10;
        stroke-width: 10px;
      }
    </style>
    <clipPath id="clippath">
      <rect class="cls-2" width="1675" height="1450"/>
    </clipPath>
  </defs>
  <g id="Layer_1-2" data-name="Layer 1">
    <g class="cls-1">
      <polygon class="cls-3" points="418.75 243.73 418.75 -238.66 0 -479.85 -418.75 -238.66 -418.75 243.73 0 484.92 418.75 243.73"/>
      <polygon class="cls-3" points="1256.25 243.73 1256.25 -238.66 837.5 -479.85 418.75 -238.66 418.75 243.73 837.5 484.92 1256.25 243.73"/>
      <polygon class="cls-3" points="2093.75 243.73 2093.75 -238.66 1675 -479.85 1256.25 -238.66 1256.25 243.73 1675 484.92 2093.75 243.73"/>
      <polygon class="cls-3" points="418.75 1690.9 418.75 1208.51 0 967.31 -418.75 1208.51 -418.75 1690.9 0 1932.09 418.75 1690.9"/>
      <polygon class="cls-3" points="1256.25 1690.9 1256.25 1208.51 837.5 967.31 418.75 1208.51 418.75 1690.9 837.5 1932.09 1256.25 1690.9"/>
      <polygon class="cls-3" points="2093.75 1690.9 2093.75 1208.51 1675 967.31 1256.25 1208.51 1256.25 1690.9 1675 1932.09 2093.75 1690.9"/>
      <polygon class="cls-3" points="0 967.31 0 484.92 -418.75 243.73 -837.5 484.92 -837.5 967.31 -418.75 1208.51 0 967.31"/>
      <polygon class="cls-3" points="837.5 967.31 837.5 484.92 418.75 243.73 0 484.92 0 967.31 418.75 1208.51 837.5 967.31"/>
      <polygon class="cls-3" points="1675 967.31 1675 484.92 1256.25 243.73 837.5 484.92 837.5 967.31 1256.25 1208.51 1675 967.31"/>
      <polygon class="cls-3" points="2512.5 967.31 2512.5 484.92 2093.75 243.73 1675 484.92 1675 967.31 2093.75 1208.51 2512.5 967.31"/>
      <line class="cls-3" x1="1256.25" y1="726.12" x2="1465.63" y2="605.52"/>
      <line class="cls-3" x1="1046.88" y1="605.52" x2="1256.25" y2="726.12"/>
      <line class="cls-3" x1="1256.25" y1="967.31" x2="1256.25" y2="726.12"/>
      <line class="cls-3" x1="418.75" y1="726.12" x2="628.13" y2="605.52"/>
      <line class="cls-3" x1="209.38" y1="605.52" x2="418.75" y2="726.12"/>
      <line class="cls-3" x1="418.75" y1="967.31" x2="418.75" y2="726.12"/>
      <g>
        <line class="cls-3" x1="1675" y1="967.31" x2="1884.38" y2="846.72"/>
        <line class="cls-3" x1="1465.63" y1="846.72" x2="1675" y2="967.31"/>
        <line class="cls-3" x1="1675" y1="1208.51" x2="1675" y2="967.31"/>
      </g>
      <g>
        <line class="cls-3" x1="837.5" y1="967.31" x2="1046.88" y2="846.72"/>
        <line class="cls-3" x1="628.13" y1="846.72" x2="837.5" y2="967.31"/>
        <line class="cls-3" x1="837.5" y1="1208.51" x2="837.5" y2="967.31"/>
      </g>
      <g>
        <line class="cls-3" x1="0" y1="967.31" x2="209.38" y2="846.72"/>
        <line class="cls-3" x1="-209.37" y1="846.72" x2="0" y2="967.31"/>
        <line class="cls-3" x1="0" y1="1208.51" x2="0" y2="967.31"/>
      </g>
      <g>
        <line class="cls-3" x1="1256.25" y1="243.73" x2="1465.62" y2="123.13"/>
        <line class="cls-3" x1="1046.87" y1="123.13" x2="1256.25" y2="243.73"/>
        <line class="cls-3" x1="1256.25" y1="484.92" x2="1256.25" y2="243.73"/>
      </g>
      <g>
        <line class="cls-3" x1="418.75" y1="243.73" x2="628.13" y2="123.13"/>
        <line class="cls-3" x1="209.38" y1="123.13" x2="418.75" y2="243.73"/>
        <line class="cls-3" x1="418.75" y1="484.92" x2="418.75" y2="243.73"/>
      </g>
      <g>
        <line class="cls-3" x1="837.5" x2="1046.87" y2="-120.6"/>
        <line class="cls-3" x1="628.12" y1="-120.6" x2="837.5"/>
        <line class="cls-3" x1="837.5" y1="241.19" x2="837.5"/>
      </g>
      <g>
        <line class="cls-3" x1="1675" x2="1884.37" y2="-120.6"/>
        <line class="cls-3" x1="1465.62" y1="-120.6" x2="1675"/>
        <line class="cls-3" x1="1675" y1="241.19" x2="1675"/>
      </g>
      <g>
        <line class="cls-3" x2="209.37" y2="-120.6"/>
        <line class="cls-3" x1="-209.38" y1="-120.6"/>
        <line class="cls-3" x1="0" y1="241.19"/>
      </g>
      <g>
        <line class="cls-3" x1="837.5" y1="1450" x2="1046.87" y2="1329.4"/>
        <line class="cls-3" x1="628.12" y1="1329.4" x2="837.5" y2="1450"/>
        <line class="cls-3" x1="837.5" y1="1691.19" x2="837.5" y2="1450"/>
      </g>
      <g>
        <line class="cls-3" x1="1675" y1="1450" x2="1884.37" y2="1329.4"/>
        <line class="cls-3" x1="1465.62" y1="1329.4" x2="1675" y2="1450"/>
        <line class="cls-3" x1="1675" y1="1691.19" x2="1675" y2="1450"/>
      </g>
      <g>
        <line class="cls-3" y1="1450" x2="209.37" y2="1329.4"/>
        <line class="cls-3" x1="-209.38" y1="1329.4" y2="1450"/>
        <line class="cls-3" x1="0" y1="1691.19" y2="1450"/>
      </g>
    </g>
  </g>
</svg>