<svg xmlns="http://www.w3.org/2000/svg" xmlns:xlink="http://www.w3.org/1999/xlink" width="500" zoomAndPan="magnify" viewBox="0 0 375 374.999991" height="500" preserveAspectRatio="xMidYMid meet" version="1.0"><defs><g/></defs><path fill="#000000" d="M 267.808594 264.390625 C 274.25 279.289062 272.488281 294.816406 272.589844 310.15625 C 272.6875 325.449219 272.683594 340.742188 272.578125 356.035156 C 272.492188 367.40625 263.335938 374.992188 252.78125 372.675781 C 245.417969 371.058594 240.246094 364.648438 240.226562 356.730469 C 240.183594 335.113281 240.105469 313.5 240.324219 291.886719 C 240.4375 281.117188 237.265625 271.773438 229.992188 263.855469 C 225.308594 258.761719 223.601562 252.949219 226.109375 246.402344 C 228.542969 240.054688 233.507812 237.109375 240.1875 235.867188 C 252.4375 233.589844 264.871094 231.625 276.683594 227.832031 C 303.976562 219.078125 319.957031 199.582031 325.789062 171.796875 C 329.363281 154.761719 331.027344 137.554688 326.660156 120.347656 C 323.84375 109.25 318.589844 99.351562 310.773438 91.003906 C 305.0625 84.898438 303.695312 78.429688 306.523438 70.511719 C 310.738281 58.710938 311.167969 46.59375 308.066406 33.640625 C 303.8125 35.089844 299.59375 36.007812 295.863281 37.898438 C 286.425781 42.683594 276.988281 47.542969 267.984375 53.070312 C 261.945312 56.78125 256.183594 57.886719 249.320312 56.113281 C 216.257812 47.554688 183.167969 47.570312 150.058594 56.152344 C 143.347656 57.894531 137.554688 57.039062 131.769531 53.117188 C 120.460938 45.453125 108.5625 38.828125 95.351562 34.902344 C 94.171875 34.550781 92.957031 34.320312 91.472656 33.96875 C 89.015625 43.007812 88.820312 51.871094 90.492188 60.753906 C 91.234375 64.703125 92.425781 68.585938 93.640625 72.425781 C 95.605469 78.609375 94.78125 84.277344 90.378906 89.035156 C 75.96875 104.609375 69.570312 122.992188 70.40625 144.097656 C 70.988281 158.695312 72.757812 173.050781 78.199219 186.734375 C 87.019531 208.910156 103.828125 222.367188 126.074219 229.132812 C 136.523438 232.308594 147.398438 234.234375 158.191406 236.085938 C 169.148438 237.964844 175.632812 244.703125 174.183594 254.628906 C 173.722656 257.800781 172.082031 261.238281 169.957031 263.648438 C 162.269531 272.359375 158.988281 282.277344 159.167969 293.859375 C 159.484375 314.710938 159.320312 335.570312 159.242188 356.425781 C 159.207031 365.996094 152.351562 373.054688 143.308594 373.175781 C 134.207031 373.296875 127.171875 366.070312 127.078125 356.332031 C 126.992188 347.25 127.058594 338.167969 127.058594 329.566406 C 118.796875 329.566406 110.863281 329.992188 102.992188 329.480469 C 84.214844 328.257812 68.582031 320.070312 55.832031 306.472656 C 50.050781 300.308594 44.867188 293.582031 39.480469 287.058594 C 35.027344 281.671875 30.402344 276.894531 23.363281 274.457031 C 15.558594 271.757812 11.988281 262.476562 14.679688 254.640625 C 17.445312 246.589844 25.796875 242.160156 34.085938 244.285156 C 44.789062 247.035156 53.144531 253.386719 60.210938 261.554688 C 65.335938 267.476562 70.253906 273.582031 75.09375 279.738281 C 88.640625 296.976562 106.320312 300.558594 126.597656 295.703125 C 126.976562 290.308594 127.027344 284.996094 127.808594 279.792969 C 128.570312 274.710938 130.082031 269.738281 131.292969 264.597656 C 125.523438 262.839844 119.460938 261.207031 113.550781 259.148438 C 70.320312 244.101562 46.851562 212.917969 40.171875 168.371094 C 37.535156 150.816406 36.640625 133.179688 40.695312 115.625 C 43.921875 101.652344 49.695312 88.859375 58.222656 77.347656 C 59.6875 75.367188 60.210938 73.613281 59.648438 71.140625 C 55.097656 51.089844 56.75 31.503906 64.398438 12.429688 C 67.578125 4.511719 72.828125 1.328125 81.292969 0.929688 C 101.265625 -0.00390625 118.707031 7.667969 135.121094 17.507812 C 142.988281 22.226562 149.941406 23.078125 158.71875 21.332031 C 188.691406 15.378906 218.746094 16.246094 248.605469 22.675781 C 252.050781 23.414062 254.699219 23.074219 257.746094 21.210938 C 272.554688 12.136719 287.980469 4.316406 305.359375 1.558594 C 310.664062 0.71875 316.226562 0.71875 321.589844 1.203125 C 327.988281 1.78125 332.410156 5.660156 334.847656 11.675781 C 342.71875 31.085938 344.496094 50.996094 339.988281 71.492188 C 339.640625 73.074219 340.03125 75.324219 340.972656 76.613281 C 356.773438 98.273438 362.929688 122.574219 361.3125 149.117188 C 360.238281 166.742188 357.523438 184.011719 350.621094 200.398438 C 337.5625 231.386719 313.886719 250.328125 282.378906 260.28125 C 277.714844 261.753906 272.960938 262.945312 267.808594 264.390625 Z M 267.808594 264.390625 " fill-opacity="1" fill-rule="nonzero"/><g fill="#000000" fill-opacity="1"><g transform="translate(187.499992, 41.108974)"><g><path d="M 3.375 0 C 3.28125 0 3.234375 -0.046875 3.234375 -0.140625 L 3.234375 -8.53125 C 3.234375 -8.59375 3.203125 -8.625 3.140625 -8.625 L 0.46875 -8.625 C 0.363281 -8.625 0.3125 -8.671875 0.3125 -8.765625 L 0.3125 -9.671875 C 0.3125 -9.765625 0.363281 -9.8125 0.46875 -9.8125 L 7.296875 -9.8125 C 7.390625 -9.8125 7.4375 -9.765625 7.4375 -9.671875 L 7.4375 -8.765625 C 7.4375 -8.671875 7.390625 -8.625 7.296875 -8.625 L 4.609375 -8.625 C 4.546875 -8.625 4.515625 -8.59375 4.515625 -8.53125 L 4.515625 -0.140625 C 4.515625 -0.046875 4.46875 0 4.375 0 Z M 3.375 0 "/></g></g></g><g fill="#000000" fill-opacity="1"><g transform="translate(195.252069, 41.108974)"><g><path d="M 1.328125 0 C 1.234375 0 1.1875 -0.046875 1.1875 -0.140625 L 1.1875 -6.765625 C 1.1875 -6.867188 1.234375 -6.921875 1.328125 -6.921875 L 2.25 -6.921875 C 2.34375 -6.921875 2.390625 -6.867188 2.390625 -6.765625 L 2.390625 -0.140625 C 2.390625 -0.046875 2.34375 0 2.25 0 Z M 1.296875 -8.46875 C 1.203125 -8.46875 1.15625 -8.519531 1.15625 -8.625 L 1.15625 -9.671875 C 1.15625 -9.765625 1.203125 -9.8125 1.296875 -9.8125 L 2.28125 -9.8125 C 2.375 -9.8125 2.421875 -9.765625 2.421875 -9.671875 L 2.421875 -8.625 C 2.421875 -8.519531 2.375 -8.46875 2.28125 -8.46875 Z M 1.296875 -8.46875 "/></g></g><g transform="translate(198.832173, 41.108974)"><g><path d="M 3.1875 0.078125 C 2.519531 0.078125 2.039062 -0.078125 1.75 -0.390625 C 1.46875 -0.703125 1.328125 -1.203125 1.328125 -1.890625 L 1.328125 -5.84375 C 1.328125 -5.90625 1.296875 -5.9375 1.234375 -5.9375 L 0.671875 -5.9375 C 0.566406 -5.9375 0.515625 -5.984375 0.515625 -6.078125 L 0.515625 -6.765625 C 0.515625 -6.867188 0.566406 -6.921875 0.671875 -6.921875 L 1.234375 -6.921875 C 1.296875 -6.921875 1.328125 -6.945312 1.328125 -7 L 1.328125 -8.953125 C 1.328125 -9.046875 1.375 -9.09375 1.46875 -9.09375 L 2.390625 -9.09375 C 2.492188 -9.09375 2.546875 -9.046875 2.546875 -8.953125 L 2.546875 -7 C 2.546875 -6.945312 2.570312 -6.921875 2.625 -6.921875 L 3.71875 -6.921875 C 3.820312 -6.921875 3.875 -6.867188 3.875 -6.765625 L 3.875 -6.078125 C 3.875 -5.984375 3.820312 -5.9375 3.71875 -5.9375 L 2.625 -5.9375 C 2.570312 -5.9375 2.546875 -5.90625 2.546875 -5.84375 L 2.546875 -1.9375 C 2.546875 -1.59375 2.613281 -1.359375 2.75 -1.234375 C 2.882812 -1.109375 3.109375 -1.046875 3.421875 -1.046875 L 3.71875 -1.046875 C 3.820312 -1.046875 3.875 -1 3.875 -0.90625 L 3.875 -0.078125 C 3.875 0.0234375 3.820312 0.078125 3.71875 0.078125 Z M 3.1875 0.078125 "/></g></g></g><g fill="#000000" fill-opacity="1"><g transform="translate(203.393918, 41.108974)"><g><path d="M 2.84375 0.078125 C 2.238281 0.078125 1.804688 -0.0664062 1.546875 -0.359375 C 1.285156 -0.660156 1.15625 -1.125 1.15625 -1.75 L 1.15625 -9.671875 C 1.15625 -9.765625 1.203125 -9.8125 1.296875 -9.8125 L 2.21875 -9.8125 C 2.320312 -9.8125 2.375 -9.765625 2.375 -9.671875 L 2.375 -1.8125 C 2.375 -1.53125 2.425781 -1.332031 2.53125 -1.21875 C 2.644531 -1.101562 2.820312 -1.046875 3.0625 -1.046875 L 3.328125 -1.046875 C 3.429688 -1.046875 3.484375 -1 3.484375 -0.90625 L 3.484375 -0.078125 C 3.484375 0.0234375 3.429688 0.078125 3.328125 0.078125 Z M 2.84375 0.078125 "/></g></g></g><g fill="#000000" fill-opacity="1"><g transform="translate(207.392661, 41.108974)"><g><path d="M 5.296875 -4.0625 C 5.359375 -4.0625 5.390625 -4.085938 5.390625 -4.140625 C 5.390625 -4.460938 5.351562 -4.722656 5.28125 -4.921875 C 5.164062 -5.265625 4.96875 -5.53125 4.6875 -5.71875 C 4.414062 -5.90625 4.085938 -6 3.703125 -6 C 3.304688 -6 2.96875 -5.90625 2.6875 -5.71875 C 2.414062 -5.53125 2.222656 -5.265625 2.109375 -4.921875 C 2.035156 -4.722656 2 -4.460938 2 -4.140625 C 2 -4.085938 2.03125 -4.0625 2.09375 -4.0625 Z M 3.765625 0.15625 C 3.066406 0.15625 2.476562 -0.00390625 2 -0.328125 C 1.519531 -0.648438 1.1875 -1.113281 1 -1.71875 C 0.914062 -1.9375 0.851562 -2.179688 0.8125 -2.453125 C 0.78125 -2.722656 0.765625 -3.0625 0.765625 -3.46875 C 0.765625 -3.875 0.78125 -4.210938 0.8125 -4.484375 C 0.84375 -4.753906 0.898438 -5 0.984375 -5.21875 C 1.171875 -5.820312 1.503906 -6.28125 1.984375 -6.59375 C 2.460938 -6.914062 3.035156 -7.078125 3.703125 -7.078125 C 4.359375 -7.078125 4.925781 -6.914062 5.40625 -6.59375 C 5.882812 -6.269531 6.21875 -5.8125 6.40625 -5.21875 C 6.445312 -5.09375 6.476562 -4.96875 6.5 -4.84375 C 6.53125 -4.726562 6.550781 -4.59375 6.5625 -4.4375 C 6.582031 -4.289062 6.597656 -4.117188 6.609375 -3.921875 C 6.617188 -3.722656 6.625 -3.492188 6.625 -3.234375 C 6.625 -3.140625 6.570312 -3.09375 6.46875 -3.09375 L 2.09375 -3.09375 C 2.03125 -3.09375 2 -3.0625 2 -3 C 2 -2.8125 2.007812 -2.65625 2.03125 -2.53125 C 2.050781 -2.40625 2.082031 -2.285156 2.125 -2.171875 C 2.257812 -1.765625 2.472656 -1.460938 2.765625 -1.265625 C 3.066406 -1.066406 3.4375 -0.96875 3.875 -0.96875 C 4.28125 -0.96875 4.628906 -1.039062 4.921875 -1.1875 C 5.210938 -1.332031 5.453125 -1.515625 5.640625 -1.734375 C 5.722656 -1.804688 5.796875 -1.816406 5.859375 -1.765625 L 6.453125 -1.234375 C 6.515625 -1.171875 6.519531 -1.101562 6.46875 -1.03125 C 6.1875 -0.675781 5.816406 -0.390625 5.359375 -0.171875 C 4.898438 0.046875 4.367188 0.15625 3.765625 0.15625 Z M 3.765625 0.15625 "/></g></g></g></svg>
