<?xml version="1.0" encoding="utf-8"?>
<!-- Generator: Adobe Illustrator 17.0.0, SVG Export Plug-In . SVG Version: 6.00 Build 0)  -->
<!DOCTYPE svg PUBLIC "-//W3C//DTD SVG 1.1//EN" "http://www.w3.org/Graphics/SVG/1.1/DTD/svg11.dtd">
<svg version="1.1" xmlns="http://www.w3.org/2000/svg" xmlns:xlink="http://www.w3.org/1999/xlink" x="0px" y="0px"
	 width="384.002px" height="192px" viewBox="0 0 384.002 192" enable-background="new 0 0 384.002 192" xml:space="preserve">
<g id="Background_Color">
	<rect x="0" y="0" fill-rule="evenodd" clip-rule="evenodd" fill="#E1E1E1" width="384.002" height="192"/>
</g>
<g id="Artwork">
	<g>
		<g>
			<path d="M210.228,101.342c-0.907,0-1.745-0.366-2.163-0.715v3.664h-1.466V92.496h1.239l0.123,0.873
				c0.401-0.558,1.343-1.047,2.372-1.047c2.547,0,3.21,2.059,3.21,4.501C213.543,99.545,212.636,101.342,210.228,101.342z
				 M208.065,99.475c0.436,0.349,1.134,0.681,1.954,0.681c1.692,0,2.059-1.326,2.059-3.35c0-2.024-0.314-3.298-1.954-3.298
				c-0.872,0-1.57,0.419-2.059,0.855V99.475z"/>
			<path d="M219.753,93.718c-0.977,0.192-1.971,0.523-2.704,0.907v6.525h-1.465v-8.654h1.204l0.157,1.012
				c0.523-0.523,1.483-1.029,2.617-1.134L219.753,93.718z"/>
			<path d="M222.056,97.469c0.087,1.832,0.541,2.704,2.303,2.704c0.925,0,1.884-0.227,2.547-0.488l0.227,1.117
				c-0.715,0.296-1.849,0.523-2.792,0.523c-3.122,0-3.751-2.128-3.751-4.553c0-2.495,0.82-4.449,3.472-4.449
				c2.355,0,3.332,1.658,3.332,3.734v1.413H222.056z M222.056,96.317h3.926v-0.314c0-1.605-0.506-2.582-1.937-2.582
				C222.423,93.421,222.074,94.59,222.056,96.317z"/>
			<path d="M231.547,101.324c-0.873,0-1.989-0.191-2.739-0.576l0.279-1.151c0.663,0.314,1.622,0.54,2.39,0.54
				c1.151,0,1.762-0.314,1.762-1.29c0-0.925-0.628-1.204-1.797-1.483c-1.902-0.454-2.617-1.117-2.617-2.6
				c0-1.623,0.89-2.443,2.914-2.443c0.837,0,1.727,0.157,2.338,0.436l-0.244,1.169c-0.541-0.226-1.378-0.419-2.059-0.419
				c-1.1,0-1.518,0.297-1.518,1.169c0,0.907,0.418,1.082,1.657,1.414c1.692,0.453,2.757,0.994,2.757,2.651
				C234.67,100.557,233.344,101.324,231.547,101.324z"/>
			<path d="M240.916,101.063c-0.366,0.14-1.221,0.261-1.78,0.261c-1.483,0-2.111-0.82-2.111-2.163v-5.479h-1.5v-1.186h1.5v-2.111
				l1.466-0.209v2.32h2.46l-0.122,1.186h-2.338v5.409c0,0.802,0.191,1.046,0.994,1.046c0.349,0,0.855-0.07,1.309-0.174
				L240.916,101.063z"/>
			<path d="M245.765,101.324c-2.512,0-3.646-1.884-3.646-4.501c0-2.617,1.134-4.501,3.646-4.501c2.512,0,3.646,1.884,3.646,4.501
				C249.412,99.44,248.277,101.324,245.765,101.324z M245.765,93.508c-1.814,0-2.181,1.483-2.181,3.315
				c0,1.832,0.366,3.314,2.181,3.314c1.814,0,2.181-1.482,2.181-3.314C247.946,94.992,247.58,93.508,245.765,93.508z"/>
		</g>
		<g>
			<path d="M139.331,101.167v-6.696h2.248l0.336-2.609h-2.584v-1.666c0-0.755,0.21-1.27,1.293-1.27l1.382-0.001v-2.334
				c-0.239-0.032-1.059-0.102-2.013-0.102c-1.992,0-3.357,1.216-3.357,3.449v1.925h-2.045v2.609h2.045v6.696H139.331z"/>
			<path d="M161.477,99.049c-1.26,0-1.633-0.621-1.633-1.706h5.217c0.1-4.075-0.752-5.606-3.981-5.606
				c-3.031,0-4.044,1.573-4.044,4.668c0,3.208,1.262,4.873,4.28,4.873c1.377,0,2.238-0.152,3.474-0.442l-0.526-2.146
				C163.042,98.954,162.467,99.049,161.477,99.049z M159.844,95.438c0-0.967,0.238-1.559,1.235-1.559
				c1.068,0,1.222,0.847,1.222,1.559H159.844z"/>
			<path d="M150.056,96.507c0,3.274,1.012,4.771,4.029,4.771c0.703,0,1.286-0.076,2.562-0.366l-0.527-2.213
				c-0.817,0.16-1.227,0.229-1.927,0.229c-0.776,0-1.44-0.256-1.44-2.421c0-2.099,0.616-2.418,1.44-2.418
				c0.701,0,1.198,0.071,1.983,0.214l0.471-2.198c-1.276-0.291-1.859-0.369-2.562-0.369
				C151.068,91.737,150.056,93.233,150.056,96.507z"/>
			<path d="M145.374,91.744c0,0-1.572-0.007-2.376,0.192l-0.296,2.408c0.781-0.23,2.339-0.256,2.339-0.256
				c1.47,0,1.328,0.707,1.328,1.415v0.412c0,0-0.533-0.191-1.817-0.191c-1.923,0-3.103,0.869-3.103,2.768
				c0,1.61,1.042,2.773,2.761,2.773c0.628,0,1.458-0.097,2.527-0.698l0.191,0.601h2.127v-5.646
				C149.055,92.905,148.601,91.744,145.374,91.744z M146.37,98.86c-0.419,0.195-0.834,0.385-1.406,0.385
				c-0.535,0-0.981-0.27-0.981-0.792c0-0.523,0.483-0.826,1.058-0.826c0.648,0,1.33,0.191,1.33,0.191V98.86z"/>
			<path d="M170.919,91.737c-0.714,0-1.501,0.117-2.145,0.345v-5.235l-2.773,0.358v13.579c1.529,0.239,2.719,0.489,4.105,0.49
				c2.978,0.004,4.167-1.594,4.167-5.124C174.273,93.331,173.381,91.737,170.919,91.737z M169.823,98.988
				c-0.38,0-0.595-0.003-1.01-0.091v-4.407c0.419-0.195,0.831-0.309,1.404-0.309c0.96,0,1.233,0.555,1.233,2.207
				C171.45,98.385,171.199,98.988,169.823,98.988z"/>
			<polygon points="201.567,91.872 198.523,91.872 195.946,96.013 195.946,86.847 193.173,87.205 193.173,101.15 195.946,101.15 
				195.946,96.788 198.523,101.15 201.567,101.15 198.754,96.391 			"/>
			<path d="M183.362,96.498c0-3.063-0.865-4.752-4.159-4.755v0c-0.001,0-0.003,0-0.005,0s-0.003,0-0.005,0v0
				c-3.294,0.003-4.16,1.692-4.16,4.755c0,3.063,0.865,4.752,4.16,4.755l0,0c0.001,0,0.003,0,0.005,0s0.004,0,0.005,0l0,0
				C182.497,101.25,183.362,99.562,183.362,96.498z M179.203,98.902L179.203,98.902c-0.001-0.001-0.003,0-0.005,0
				s-0.003-0.001-0.005-0.001v0.001c-0.954,0-1.349-0.264-1.349-2.403c0-2.14,0.395-2.381,1.349-2.381l0,0c0.001,0,0.003,0,0.005,0
				s0.004,0,0.005,0l0,0c0.954,0,1.349,0.241,1.349,2.381C180.551,98.638,180.156,98.902,179.203,98.902z"/>
			<path d="M192.39,96.498c0-3.063-0.865-4.752-4.159-4.755v0c-0.002,0-0.004,0-0.005,0c-0.002,0-0.004,0-0.005,0v0
				c-3.295,0.003-4.16,1.692-4.16,4.755c0,3.063,0.865,4.752,4.16,4.755l0,0c0.001,0,0.003,0,0.005,0c0.001,0,0.003,0,0.005,0l0,0
				C191.525,101.25,192.39,99.562,192.39,96.498z M188.231,98.902L188.231,98.902c-0.002-0.001-0.004,0-0.005,0
				c-0.002,0-0.004-0.001-0.005-0.001v0.001c-0.954,0-1.349-0.264-1.349-2.403c0-2.14,0.396-2.381,1.349-2.381l0,0
				c0.001,0,0.003,0,0.005,0c0.001,0,0.003,0,0.005,0l0,0c0.954,0,1.349,0.241,1.349,2.381
				C189.58,98.638,189.185,98.902,188.231,98.902z"/>
		</g>
	</g>
</g>
</svg>
