<?xml version="1.0" encoding="utf-8"?>
<!-- Generator: Adobe Illustrator 17.0.0, SVG Export Plug-In . SVG Version: 6.00 Build 0)  -->
<!DOCTYPE svg PUBLIC "-//W3C//DTD SVG 1.1//EN" "http://www.w3.org/Graphics/SVG/1.1/DTD/svg11.dtd">
<svg version="1.1" xmlns="http://www.w3.org/2000/svg" xmlns:xlink="http://www.w3.org/1999/xlink" x="0px" y="0px"
	 width="384.002px" height="192.001px" viewBox="0 0 384.002 192.001" enable-background="new 0 0 384.002 192.001"
	 xml:space="preserve">
<g id="Background_Color">
	<rect x="0" y="0" fill-rule="evenodd" clip-rule="evenodd" fill="#FFFFFF" width="384.002" height="192.001"/>
</g>
<g id="Artwork">
	<g>
		<polygon fill-rule="evenodd" clip-rule="evenodd" fill="#FFFFFF" points="173.824,110.4 170.944,105.601 176.704,105.601 		"/>
		<path fill="#4967A9" d="M146.532,74.88h-37.577c-1.288,0-2.331,1.044-2.331,2.332v37.577c0,1.288,1.043,2.332,2.331,2.332h20.23
			v-16.357h-5.505v-6.375h5.505v-4.702c0-5.456,3.331-8.426,8.199-8.426c2.331,0,4.335,0.173,4.919,0.251v5.702l-3.376,0.001
			c-2.647,0-3.159,1.258-3.159,3.104v4.07h6.312l-0.822,6.375h-5.491v16.357h10.764c1.288,0,2.332-1.044,2.332-2.332V77.212
			C148.864,75.924,147.82,74.88,146.532,74.88z"/>
		<g>
			<path fill="#0F2648" d="M212.694,105.917c-1.498,0-2.88-0.604-3.571-1.181v6.048h-2.419V91.316h2.044l0.202,1.44
				c0.663-0.921,2.218-1.728,3.917-1.728c4.205,0,5.299,3.398,5.299,7.43C218.166,102.951,216.669,105.917,212.694,105.917z
				 M209.123,102.835c0.72,0.576,1.872,1.123,3.226,1.123c2.793,0,3.398-2.189,3.398-5.529s-0.518-5.443-3.225-5.443
				c-1.44,0-2.592,0.691-3.398,1.412V102.835z"/>
			<path fill="#0F2648" d="M228.419,93.332c-1.613,0.316-3.254,0.864-4.464,1.497V105.6h-2.419V91.316h1.987l0.26,1.67
				c0.864-0.864,2.447-1.699,4.319-1.871L228.419,93.332z"/>
			<path fill="#0F2648" d="M232.221,99.523c0.144,3.024,0.893,4.464,3.801,4.464c1.526,0,3.11-0.375,4.205-0.807l0.374,1.843
				c-1.181,0.49-3.053,0.864-4.608,0.864c-5.155,0-6.191-3.513-6.191-7.516c0-4.118,1.354-7.344,5.731-7.344
				c3.888,0,5.501,2.736,5.501,6.163v2.332H232.221z M232.221,97.623h6.48v-0.519c0-2.649-0.835-4.262-3.197-4.262
				C232.826,92.842,232.25,94.772,232.221,97.623z"/>
			<path fill="#0F2648" d="M247.888,105.888c-1.44,0-3.283-0.316-4.521-0.95l0.46-1.9c1.095,0.518,2.679,0.893,3.946,0.893
				c1.901,0,2.909-0.518,2.909-2.131c0-1.526-1.037-1.987-2.966-2.448c-3.139-0.749-4.32-1.843-4.32-4.291
				c0-2.678,1.469-4.032,4.809-4.032c1.382,0,2.851,0.259,3.859,0.72l-0.403,1.929c-0.893-0.375-2.275-0.691-3.398-0.691
				c-1.814,0-2.506,0.49-2.506,1.93c0,1.497,0.691,1.785,2.736,2.332c2.793,0.749,4.55,1.642,4.55,4.378
				C253.043,104.621,250.854,105.888,247.888,105.888z"/>
			<path fill="#0F2648" d="M263.353,105.456c-0.604,0.23-2.016,0.432-2.938,0.432c-2.448,0-3.484-1.353-3.484-3.571v-9.043h-2.477
				v-1.958h2.477v-3.485l2.419-0.345v3.83h4.061l-0.201,1.958h-3.859v8.927c0,1.325,0.317,1.728,1.642,1.728
				c0.576,0,1.411-0.115,2.16-0.288L263.353,105.456z"/>
			<path fill="#0F2648" d="M271.359,105.888c-4.147,0-6.019-3.11-6.019-7.43s1.872-7.43,6.019-7.43c4.147,0,6.019,3.11,6.019,7.43
				S275.506,105.888,271.359,105.888z M271.359,92.986c-2.995,0-3.6,2.448-3.6,5.472c0,3.023,0.605,5.472,3.6,5.472
				c2.995,0,3.6-2.448,3.6-5.472C274.96,95.434,274.355,92.986,271.359,92.986z"/>
		</g>
		<g>
			<path fill="#0F2648" d="M192.53,74.88h-37.413c-1.326,0-2.413,1.087-2.413,2.414v37.413c0,1.327,1.087,2.413,2.413,2.413h37.413
				c1.328,0,2.414-1.086,2.414-2.413V77.295C194.944,75.967,193.858,74.88,192.53,74.88z"/>
			<circle fill="#FFFFFF" cx="176.223" cy="84.276" r="1.503"/>
			<circle fill="#FFFFFF" cx="180.158" cy="88.21" r="1.67"/>
			<circle fill="#FFFFFF" cx="184.093" cy="92.145" r="1.837"/>
			<circle fill="#FFFFFF" cx="188.027" cy="96.08" r="2.004"/>
			<circle fill="#FFFFFF" cx="168.354" cy="84.276" r="1.337"/>
			<circle fill="#FFFFFF" cx="172.288" cy="88.21" r="1.504"/>
			<circle fill="#FFFFFF" cx="176.223" cy="92.145" r="1.67"/>
			<circle fill="#FFFFFF" cx="180.158" cy="96.08" r="1.837"/>
			<circle fill="#FFFFFF" cx="184.093" cy="100.014" r="2.004"/>
			<circle fill="#FFFFFF" cx="160.485" cy="84.276" r="1.17"/>
			<circle fill="#FFFFFF" cx="164.42" cy="88.21" r="1.336"/>
			<circle fill="#FFFFFF" cx="168.355" cy="92.144" r="1.503"/>
			<circle fill="#FFFFFF" cx="172.289" cy="96.079" r="1.671"/>
			<circle fill="#FFFFFF" cx="176.223" cy="100.014" r="1.837"/>
			<circle fill="#FFFFFF" cx="180.158" cy="103.948" r="2.004"/>
			<circle fill="#FFFFFF" cx="168.354" cy="100.013" r="1.337"/>
			<circle fill="#FFFFFF" cx="164.42" cy="103.948" r="1.336"/>
			<circle fill="#FFFFFF" cx="160.486" cy="107.882" r="1.337"/>
			<circle fill="#FFFFFF" cx="168.354" cy="107.883" r="1.337"/>
			<circle fill="#FFFFFF" cx="176.223" cy="107.883" r="1.337"/>
			<circle fill="#FFFFFF" cx="172.289" cy="103.948" r="1.336"/>
		</g>
	</g>
</g>
</svg>
