<?xml version="1.0" encoding="utf-8"?>
<!-- Generator: Adobe Illustrator 17.0.0, SVG Export Plug-In . SVG Version: 6.00 Build 0)  -->
<!DOCTYPE svg PUBLIC "-//W3C//DTD SVG 1.1//EN" "http://www.w3.org/Graphics/SVG/1.1/DTD/svg11.dtd">
<svg version="1.1" xmlns="http://www.w3.org/2000/svg" xmlns:xlink="http://www.w3.org/1999/xlink" x="0px" y="0px"
	 width="384.001px" height="192.001px" viewBox="0 0 384.001 192.001" enable-background="new 0 0 384.001 192.001"
	 xml:space="preserve">
<g id="Background_Color">
	<rect x="0" y="0" fill-rule="evenodd" clip-rule="evenodd" fill="#6D6E71" width="384.001" height="192.001"/>
</g>
<g id="Artwork">
	<g>
		<g>
			<path fill="#4967A9" d="M187.503,69.6h-46.972c-1.61,0-2.915,1.305-2.915,2.915v46.972c0,1.609,1.305,2.914,2.915,2.914h25.288
				v-20.447h-6.881v-7.969h6.881v-5.877c0-6.819,4.165-10.533,10.249-10.533c2.914,0,5.419,0.217,6.149,0.314v7.128l-4.22,0.002
				c-3.309,0-3.949,1.572-3.949,3.879v5.087h7.891l-1.027,7.969h-6.863v20.447h13.455c1.609,0,2.914-1.305,2.914-2.914V72.515
				C190.417,70.905,189.112,69.6,187.503,69.6z"/>
		</g>
		<path fill="#FFFFFF" d="M243.08,69.6h-46.767c-1.657,0-3.016,1.359-3.016,3.018v46.766c0,1.659,1.358,3.017,3.016,3.017h46.767
			c1.66,0,3.018-1.358,3.018-3.017V72.618C246.097,70.959,244.739,69.6,243.08,69.6z"/>
		<circle fill="#6D6E71" cx="222.697" cy="81.345" r="1.879"/>
		<circle fill="#6D6E71" cx="227.614" cy="86.263" r="2.087"/>
		<circle fill="#6D6E71" cx="232.533" cy="91.181" r="2.296"/>
		<circle fill="#6D6E71" cx="237.45" cy="96.099" r="2.505"/>
		<circle fill="#6D6E71" cx="212.861" cy="81.345" r="1.671"/>
		<circle fill="#6D6E71" cx="217.778" cy="86.263" r="1.88"/>
		<circle fill="#6D6E71" cx="222.696" cy="91.181" r="2.087"/>
		<circle fill="#6D6E71" cx="227.615" cy="96.099" r="2.296"/>
		<circle fill="#6D6E71" cx="232.533" cy="101.017" r="2.505"/>
		<circle fill="#6D6E71" cx="203.024" cy="81.345" r="1.462"/>
		<circle fill="#6D6E71" cx="207.943" cy="86.263" r="1.671"/>
		<circle fill="#6D6E71" cx="212.861" cy="91.18" r="1.879"/>
		<circle fill="#6D6E71" cx="217.779" cy="96.099" r="2.088"/>
		<circle fill="#6D6E71" cx="222.696" cy="101.017" r="2.296"/>
		<circle fill="#6D6E71" cx="227.615" cy="105.934" r="2.505"/>
		<circle fill="#6D6E71" cx="212.861" cy="101.016" r="1.671"/>
		<circle fill="#6D6E71" cx="207.943" cy="105.934" r="1.671"/>
		<circle fill="#6D6E71" cx="203.026" cy="110.851" r="1.671"/>
		<circle fill="#6D6E71" cx="212.861" cy="110.852" r="1.671"/>
		<path fill="#6D6E71" d="M223.879,112.034c-0.654,0.653-1.711,0.653-2.364,0c-0.651-0.651-0.651-1.709,0-2.361
			c0.653-0.653,1.71-0.653,2.364,0C224.529,110.324,224.529,111.383,223.879,112.034z"/>
		<circle fill="#6D6E71" cx="217.779" cy="105.934" r="1.671"/>
		<g>
			<path fill="#FFFFFF" d="M187.503,69.6h-46.971c-1.61,0-2.914,1.305-2.914,2.915v46.972c0,1.609,1.304,2.914,2.914,2.914h25.288
				v-20.447h-6.881v-7.969h6.881v-5.877c0-6.819,4.165-10.533,10.249-10.533c2.914,0,5.419,0.217,6.148,0.314v7.128l-4.22,0.002
				c-3.309,0-3.949,1.572-3.949,3.879v5.087h7.89l-1.027,7.969h-6.863v20.447h13.454c1.609,0,2.915-1.305,2.915-2.914V72.515
				C190.417,70.905,189.112,69.6,187.503,69.6z"/>
		</g>
	</g>
</g>
</svg>
