<?xml version="1.0" encoding="utf-8"?>
<!-- Generator: Adobe Illustrator 17.0.0, SVG Export Plug-In . SVG Version: 6.00 Build 0)  -->
<!DOCTYPE svg PUBLIC "-//W3C//DTD SVG 1.1//EN" "http://www.w3.org/Graphics/SVG/1.1/DTD/svg11.dtd">
<svg version="1.1" id="Layer_1" xmlns="http://www.w3.org/2000/svg" xmlns:xlink="http://www.w3.org/1999/xlink" x="0px" y="0px"
	 width="384.002px" height="192.001px" viewBox="0 0 384.002 192.001" enable-background="new 0 0 384.002 192.001"
	 xml:space="preserve">
<g id="Background_Color">
	<rect y="0" width="384.002" height="192.001"/>
</g>
<g id="Artwork">
	<g>
		<g>
			<path fill="#FFFFFF" d="M168.38,133.21c-1.198,0-2.304-0.484-2.857-0.944v4.839h-1.936v-15.577h1.636l0.161,1.152
				c0.53-0.737,1.774-1.383,3.134-1.383c3.364,0,4.24,2.719,4.24,5.945C172.758,130.837,171.56,133.21,168.38,133.21z
				 M165.523,130.744c0.576,0.461,1.497,0.899,2.581,0.899c2.235,0,2.719-1.751,2.719-4.424c0-2.673-0.415-4.355-2.581-4.355
				c-1.152,0-2.074,0.553-2.719,1.129V130.744z"/>
			<path fill="#FFFFFF" d="M180.96,123.141c-1.291,0.253-2.604,0.691-3.571,1.198v8.618h-1.936v-11.429h1.589l0.208,1.336
				c0.691-0.691,1.958-1.359,3.456-1.498L180.96,123.141z"/>
			<path fill="#FFFFFF" d="M184.001,128.095c0.114,2.419,0.714,3.571,3.041,3.571c1.222,0,2.489-0.299,3.364-0.645l0.299,1.475
				c-0.944,0.392-2.442,0.691-3.686,0.691c-4.124,0-4.954-2.811-4.954-6.014c0-3.295,1.083-5.877,4.585-5.877
				c3.111,0,4.401,2.189,4.401,4.932v1.866h-7.05V128.095z M184.001,126.574h5.184v-0.415c0-2.12-0.669-3.41-2.558-3.41
				C184.484,122.749,184.023,124.293,184.001,126.574z"/>
			<path fill="#FFFFFF" d="M196.534,133.187c-1.152,0-2.626-0.254-3.617-0.76l0.368-1.521c0.876,0.415,2.143,0.715,3.157,0.715
				c1.521,0,2.327-0.415,2.327-1.705c0-1.221-0.83-1.59-2.373-1.959c-2.512-0.599-3.456-1.475-3.456-3.433
				c0-2.143,1.175-3.226,3.848-3.226c1.106,0,2.281,0.208,3.087,0.577l-0.323,1.543c-0.714-0.299-1.82-0.553-2.719-0.553
				c-1.452,0-2.005,0.391-2.005,1.543c0,1.198,0.553,1.429,2.189,1.867c2.235,0.599,3.64,1.313,3.64,3.502
				C200.659,132.173,198.908,133.187,196.534,133.187z"/>
			<path fill="#FFFFFF" d="M208.907,132.842c-0.484,0.184-1.613,0.345-2.35,0.345c-1.958,0-2.788-1.083-2.788-2.857v-7.236h-1.982
				v-1.566h1.982v-2.788l1.935-0.277v3.065h3.249l-0.161,1.566h-3.088v7.143c0,1.06,0.254,1.383,1.313,1.383
				c0.461,0,1.129-0.092,1.729-0.23L208.907,132.842z"/>
			<path fill="#FFFFFF" d="M215.312,133.187c-3.318,0-4.816-2.489-4.816-5.945c0-3.455,1.498-5.945,4.816-5.945
				s4.816,2.489,4.816,5.945C220.128,130.698,218.63,133.187,215.312,133.187z M215.312,122.864c-2.396,0-2.88,1.959-2.88,4.377
				c0,2.42,0.484,4.378,2.88,4.378c2.396,0,2.88-1.958,2.88-4.378C218.192,124.823,217.708,122.864,215.312,122.864z"/>
		</g>
		<path fill="#4967A9" d="M215.24,53.284h-46.766c-1.657,0-3.016,1.358-3.016,3.018v46.766c0,1.659,1.359,3.017,3.016,3.017h46.766
			c1.66,0,3.018-1.358,3.018-3.017V56.302C218.258,54.643,216.9,53.284,215.24,53.284z"/>
		<circle fill="#FFFFFF" cx="194.857" cy="65.029" r="1.879"/>
		<circle fill="#FFFFFF" cx="199.775" cy="69.947" r="2.087"/>
		<circle fill="#FFFFFF" cx="204.694" cy="74.864" r="2.296"/>
		<circle fill="#FFFFFF" cx="209.611" cy="79.783" r="2.505"/>
		<circle fill="#FFFFFF" cx="185.021" cy="65.029" r="1.671"/>
		<circle fill="#FFFFFF" cx="189.939" cy="69.946" r="1.88"/>
		<circle fill="#FFFFFF" cx="194.857" cy="74.865" r="2.087"/>
		<circle fill="#FFFFFF" cx="199.775" cy="79.783" r="2.296"/>
		<circle fill="#FFFFFF" cx="204.693" cy="84.701" r="2.505"/>
		<circle fill="#FFFFFF" cx="175.185" cy="65.029" r="1.462"/>
		<circle fill="#FFFFFF" cx="180.104" cy="69.946" r="1.671"/>
		<circle fill="#FFFFFF" cx="185.022" cy="74.864" r="1.879"/>
		<circle fill="#FFFFFF" cx="189.939" cy="79.782" r="2.088"/>
		<circle fill="#FFFFFF" cx="194.857" cy="84.7" r="2.296"/>
		<circle fill="#FFFFFF" cx="199.775" cy="89.618" r="2.505"/>
		<circle fill="#FFFFFF" cx="185.021" cy="84.7" r="1.671"/>
		<circle fill="#FFFFFF" cx="180.104" cy="89.618" r="1.671"/>
		<circle fill="#FFFFFF" cx="175.187" cy="94.535" r="1.671"/>
		<circle fill="#FFFFFF" cx="185.021" cy="94.536" r="1.671"/>
		<path fill="#FFFFFF" d="M196.04,95.717c-0.654,0.653-1.711,0.653-2.365,0c-0.651-0.651-0.651-1.709,0-2.361
			c0.653-0.653,1.71-0.653,2.365,0C196.69,94.008,196.69,95.066,196.04,95.717z"/>
		<circle fill="#FFFFFF" cx="189.94" cy="89.618" r="1.671"/>
	</g>
</g>
</svg>
