<?xml version="1.0" encoding="utf-8"?>
<!-- Generator: Adobe Illustrator 17.0.0, SVG Export Plug-In . SVG Version: 6.00 Build 0)  -->
<!DOCTYPE svg PUBLIC "-//W3C//DTD SVG 1.1//EN" "http://www.w3.org/Graphics/SVG/1.1/DTD/svg11.dtd">
<svg version="1.1" xmlns="http://www.w3.org/2000/svg" xmlns:xlink="http://www.w3.org/1999/xlink" x="0px" y="0px"
	 width="384.002px" height="192.001px" viewBox="0 0 384.002 192.001" enable-background="new 0 0 384.002 192.001"
	 xml:space="preserve">
<g id="Background_Color">
	<rect x="0" y="0" fill-rule="evenodd" clip-rule="evenodd" width="384.002" height="192.001"/>
</g>
<g id="Artwork">
	<g>
		<g>
			<g>
				<polyline fill-rule="evenodd" clip-rule="evenodd" fill="#FFFFFF" points="152.274,117.121 146.768,100.76 146.768,94.384 
					152.994,77.542 165.395,81.504 168.914,92.928 164.35,100.76 158.858,117.121 				"/>
				<path fill="#4967A9" d="M169.624,74.871h-37.586c-1.288,0-2.332,1.044-2.332,2.333v37.586c0,1.288,1.044,2.332,2.332,2.332
					h20.235V100.76h-5.506v-6.376h5.506v-4.703c0-5.457,3.333-8.428,8.201-8.428c2.331,0,4.336,0.174,4.92,0.251v5.703l-3.376,0.002
					c-2.647,0-3.16,1.258-3.16,3.104v4.071h6.314l-0.822,6.376h-5.492v16.361h10.766c1.288,0,2.332-1.044,2.332-2.332V77.204
					C171.956,75.916,170.912,74.871,169.624,74.871z"/>
			</g>
			<g>
				<path fill="#FFFFFF" d="M189.611,105.908c-1.498,0-2.88-0.605-3.572-1.181v6.048h-2.419V91.307h2.045l0.201,1.44
					c0.663-0.922,2.218-1.728,3.917-1.728c4.205,0,5.299,3.398,5.299,7.43C195.082,102.942,193.585,105.908,189.611,105.908z
					 M186.04,102.826c0.72,0.576,1.872,1.124,3.226,1.124c2.794,0,3.398-2.189,3.398-5.53c0-3.341-0.519-5.443-3.226-5.443
					c-1.439,0-2.592,0.691-3.398,1.412V102.826z"/>
				<path fill="#FFFFFF" d="M205.336,93.323c-1.613,0.316-3.254,0.864-4.464,1.498v10.771h-2.419V91.307h1.987l0.259,1.67
					c0.864-0.864,2.448-1.699,4.32-1.872L205.336,93.323z"/>
				<path fill="#FFFFFF" d="M209.138,99.515c0.144,3.024,0.892,4.464,3.802,4.464c1.526,0,3.109-0.375,4.204-0.807l0.374,1.843
					c-1.181,0.49-3.053,0.864-4.608,0.864c-5.155,0-6.192-3.513-6.192-7.517c0-4.118,1.354-7.343,5.731-7.343
					c3.888,0,5.501,2.736,5.501,6.163v2.333H209.138z M209.138,97.614h6.48v-0.518c0-2.649-0.835-4.263-3.197-4.263
					C209.742,92.833,209.166,94.763,209.138,97.614z"/>
				<path fill="#FFFFFF" d="M224.804,105.879c-1.44,0-3.283-0.316-4.521-0.95l0.461-1.901c1.094,0.519,2.679,0.893,3.945,0.893
					c1.901,0,2.909-0.519,2.909-2.131c0-1.526-1.037-1.987-2.966-2.448c-3.139-0.749-4.32-1.843-4.32-4.291
					c0-2.679,1.469-4.032,4.81-4.032c1.382,0,2.851,0.259,3.859,0.72l-0.403,1.929c-0.893-0.374-2.275-0.691-3.398-0.691
					c-1.814,0-2.505,0.49-2.505,1.93c0,1.498,0.691,1.786,2.735,2.332c2.794,0.749,4.551,1.642,4.551,4.378
					C229.959,104.612,227.77,105.879,224.804,105.879z"/>
				<path fill="#FFFFFF" d="M240.27,105.447c-0.605,0.23-2.017,0.432-2.938,0.432c-2.448,0-3.485-1.354-3.485-3.571v-9.043h-2.477
					v-1.959h2.477v-3.484l2.42-0.346v3.83h4.061l-0.202,1.959h-3.858v8.927c0,1.325,0.317,1.729,1.642,1.729
					c0.575,0,1.411-0.115,2.16-0.288L240.27,105.447z"/>
				<path fill="#FFFFFF" d="M248.276,105.879c-4.147,0-6.019-3.11-6.019-7.43c0-4.32,1.872-7.43,6.019-7.43
					c4.147,0,6.02,3.11,6.02,7.43C254.295,102.769,252.423,105.879,248.276,105.879z M248.276,92.977c-2.995,0-3.6,2.448-3.6,5.472
					c0,3.023,0.605,5.472,3.6,5.472c2.995,0,3.6-2.448,3.6-5.472C251.875,95.425,251.271,92.977,248.276,92.977z"/>
			</g>
		</g>
	</g>
</g>
</svg>
