<?xml version="1.0" encoding="utf-8"?>
<!-- Generator: Adobe Illustrator 17.0.0, SVG Export Plug-In . SVG Version: 6.00 Build 0)  -->
<!DOCTYPE svg PUBLIC "-//W3C//DTD SVG 1.1//EN" "http://www.w3.org/Graphics/SVG/1.1/DTD/svg11.dtd">
<svg version="1.1" xmlns="http://www.w3.org/2000/svg" xmlns:xlink="http://www.w3.org/1999/xlink" x="0px" y="0px"
	 width="384.002px" height="192.001px" viewBox="0 0 384.002 192.001" enable-background="new 0 0 384.002 192.001"
	 xml:space="preserve">
<g id="Background_Color">
	<rect x="0" y="0" fill-rule="evenodd" clip-rule="evenodd" width="384.002" height="192.001"/>
</g>
<g id="Artwork">
	<g>
		<g>
			<path fill="#FFFFFF" d="M168.288,123.37c-1.198,0-2.304-0.484-2.857-0.944v4.839h-1.936v-15.577h1.636l0.161,1.152
				c0.53-0.737,1.774-1.383,3.134-1.383c3.364,0,4.24,2.719,4.24,5.944C172.666,120.997,171.468,123.37,168.288,123.37z
				 M165.431,120.904c0.576,0.461,1.498,0.899,2.58,0.899c2.235,0,2.72-1.751,2.72-4.424c0-2.673-0.415-4.355-2.581-4.355
				c-1.152,0-2.074,0.553-2.719,1.129V120.904z"/>
			<path fill="#FFFFFF" d="M180.868,113.301c-1.291,0.253-2.604,0.691-3.571,1.198v8.618h-1.936v-11.429h1.59l0.208,1.336
				c0.691-0.691,1.958-1.359,3.456-1.498L180.868,113.301z"/>
			<path fill="#FFFFFF" d="M183.908,118.255c0.115,2.419,0.714,3.571,3.042,3.571c1.221,0,2.489-0.299,3.364-0.645l0.299,1.475
				c-0.944,0.392-2.442,0.691-3.686,0.691c-4.124,0-4.954-2.811-4.954-6.014c0-3.295,1.083-5.876,4.585-5.876
				c3.111,0,4.401,2.189,4.401,4.931v1.867H183.908z M183.908,116.733h5.185v-0.414c0-2.12-0.669-3.41-2.558-3.41
				C184.392,112.909,183.931,114.452,183.908,116.733z"/>
			<path fill="#FFFFFF" d="M196.442,123.347c-1.152,0-2.626-0.253-3.618-0.76l0.369-1.521c0.876,0.415,2.143,0.714,3.157,0.714
				c1.521,0,2.328-0.414,2.328-1.705c0-1.221-0.83-1.59-2.374-1.959c-2.511-0.599-3.456-1.475-3.456-3.433
				c0-2.143,1.175-3.226,3.848-3.226c1.107,0,2.281,0.208,3.088,0.576l-0.323,1.544c-0.714-0.3-1.82-0.553-2.719-0.553
				c-1.452,0-2.005,0.391-2.005,1.543c0,1.198,0.553,1.429,2.189,1.867c2.235,0.599,3.641,1.313,3.641,3.502
				C200.566,122.333,198.815,123.347,196.442,123.347z"/>
			<path fill="#FFFFFF" d="M208.815,123.002c-0.484,0.184-1.613,0.345-2.35,0.345c-1.959,0-2.788-1.083-2.788-2.857v-7.236h-1.982
				v-1.566h1.982v-2.788l1.935-0.276v3.064h3.249l-0.161,1.566h-3.088v7.144c0,1.06,0.254,1.382,1.313,1.382
				c0.461,0,1.129-0.092,1.729-0.23L208.815,123.002z"/>
			<path fill="#FFFFFF" d="M215.22,123.347c-3.318,0-4.815-2.489-4.815-5.945c0-3.456,1.498-5.944,4.815-5.944
				c3.318,0,4.816,2.489,4.816,5.944C220.036,120.858,218.538,123.347,215.22,123.347z M215.22,113.024
				c-2.396,0-2.88,1.959-2.88,4.377c0,2.42,0.484,4.378,2.88,4.378c2.396,0,2.88-1.959,2.88-4.378
				C218.1,114.983,217.616,113.024,215.22,113.024z"/>
		</g>
		<g>
			<g>
				<g>
					<circle fill="#FFFFFF" cx="194.322" cy="66.056" r="1.62"/>
					<circle fill="#FFFFFF" cx="198.773" cy="70.508" r="1.8"/>
					<circle fill="#FFFFFF" cx="203.227" cy="74.96" r="1.98"/>
					<circle fill="#FFFFFF" cx="207.678" cy="79.413" r="2.16"/>
					<circle fill="#FFFFFF" cx="185.418" cy="66.056" r="1.44"/>
					<circle fill="#FFFFFF" cx="189.869" cy="70.508" r="1.621"/>
					<circle fill="#FFFFFF" cx="194.322" cy="74.96" r="1.8"/>
					<circle fill="#FFFFFF" cx="198.774" cy="79.413" r="1.98"/>
					<circle fill="#FFFFFF" cx="203.226" cy="83.865" r="2.159"/>
					<circle fill="#FFFFFF" cx="176.513" cy="66.056" r="1.261"/>
					<circle fill="#FFFFFF" cx="180.965" cy="70.508" r="1.44"/>
					<circle fill="#FFFFFF" cx="185.418" cy="74.959" r="1.62"/>
					<circle fill="#FFFFFF" cx="189.87" cy="79.412" r="1.8"/>
					<circle fill="#FFFFFF" cx="194.321" cy="83.864" r="1.98"/>
					<circle fill="#FFFFFF" cx="198.774" cy="88.316" r="2.16"/>
				</g>
				<g>
					<circle fill="#FFFFFF" cx="185.418" cy="83.864" r="1.44"/>
					<circle fill="#FFFFFF" cx="180.965" cy="88.316" r="1.44"/>
					<circle fill="#FFFFFF" cx="176.514" cy="92.768" r="1.441"/>
					<circle fill="#FFFFFF" cx="185.418" cy="92.768" r="1.441"/>
					<circle fill="#FFFFFF" cx="194.322" cy="92.769" r="1.441"/>
					<circle fill="#FFFFFF" cx="189.87" cy="88.316" r="1.44"/>
				</g>
			</g>
		</g>
	</g>
</g>
</svg>
