<?xml version="1.0" encoding="utf-8"?>
<!-- Generator: Adobe Illustrator 17.0.0, SVG Export Plug-In . SVG Version: 6.00 Build 0)  -->
<!DOCTYPE svg PUBLIC "-//W3C//DTD SVG 1.1//EN" "http://www.w3.org/Graphics/SVG/1.1/DTD/svg11.dtd">
<svg version="1.1" xmlns="http://www.w3.org/2000/svg" xmlns:xlink="http://www.w3.org/1999/xlink" x="0px" y="0px"
	 width="384.001px" height="192.001px" viewBox="0 0 384.001 192.001" enable-background="new 0 0 384.001 192.001"
	 xml:space="preserve">
<g id="Background_Color">
	<rect x="0" y="0" fill-rule="evenodd" clip-rule="evenodd" fill="#0F2648" width="384.001" height="192.001"/>
</g>
<g id="Artwork">
	<g>
		<g>
			<g>
				<g>
					<circle fill="#FFFFFF" cx="232.58" cy="80.72" r="1.62"/>
					<circle fill="#FFFFFF" cx="237.032" cy="85.172" r="1.8"/>
					<circle fill="#FFFFFF" cx="241.485" cy="89.624" r="1.98"/>
					<circle fill="#FFFFFF" cx="245.937" cy="94.076" r="2.16"/>
					<circle fill="#FFFFFF" cx="223.677" cy="80.72" r="1.44"/>
					<circle fill="#FFFFFF" cx="228.128" cy="85.172" r="1.621"/>
					<circle fill="#FFFFFF" cx="232.581" cy="89.624" r="1.8"/>
					<circle fill="#FFFFFF" cx="237.033" cy="94.076" r="1.98"/>
					<circle fill="#FFFFFF" cx="241.485" cy="98.529" r="2.159"/>
					<circle fill="#FFFFFF" cx="214.772" cy="80.72" r="1.261"/>
					<circle fill="#FFFFFF" cx="219.224" cy="85.172" r="1.44"/>
					<circle fill="#FFFFFF" cx="223.677" cy="89.623" r="1.62"/>
					<circle fill="#FFFFFF" cx="228.129" cy="94.076" r="1.8"/>
					<circle fill="#FFFFFF" cx="232.58" cy="98.528" r="1.98"/>
					<circle fill="#FFFFFF" cx="237.033" cy="102.98" r="2.16"/>
				</g>
				<g>
					<circle fill="#FFFFFF" cx="223.677" cy="98.528" r="1.44"/>
					<circle fill="#FFFFFF" cx="219.224" cy="102.98" r="1.44"/>
					<circle fill="#FFFFFF" cx="214.773" cy="107.432" r="1.441"/>
					<circle fill="#FFFFFF" cx="223.677" cy="107.432" r="1.441"/>
					<circle fill="#FFFFFF" cx="232.581" cy="107.433" r="1.441"/>
					<circle fill="#FFFFFF" cx="228.129" cy="102.98" r="1.44"/>
				</g>
			</g>
		</g>
		<g>
			<path fill="#FFFFFF" d="M142.465,108.869c-1.493,0-2.87-0.603-3.559-1.177v6.028h-2.411V94.316h2.038l0.201,1.435
				c0.66-0.919,2.21-1.723,3.904-1.723c4.19,0,5.281,3.388,5.281,7.406C147.919,105.912,146.426,108.869,142.465,108.869z
				 M138.906,105.797c0.718,0.575,1.866,1.12,3.214,1.12c2.784,0,3.387-2.182,3.387-5.511s-0.517-5.425-3.215-5.425
				c-1.436,0-2.583,0.689-3.387,1.407V105.797z"/>
			<path fill="#FFFFFF" d="M158.135,96.325c-1.607,0.316-3.243,0.861-4.449,1.493v10.735h-2.411V94.316h1.98l0.258,1.665
				c0.861-0.861,2.44-1.693,4.306-1.866L158.135,96.325z"/>
			<path fill="#FFFFFF" d="M161.923,102.497c0.143,3.014,0.89,4.448,3.789,4.448c1.522,0,3.1-0.372,4.191-0.803l0.373,1.837
				c-1.177,0.488-3.042,0.861-4.592,0.861c-5.138,0-6.171-3.502-6.171-7.491c0-4.105,1.349-7.32,5.711-7.32
				c3.875,0,5.483,2.727,5.483,6.143v2.325H161.923z M161.923,100.602h6.459v-0.517c0-2.641-0.833-4.248-3.186-4.248
				C162.526,95.837,161.952,97.76,161.923,100.602z"/>
			<path fill="#FFFFFF" d="M177.537,108.84c-1.435,0-3.272-0.316-4.506-0.947l0.459-1.895c1.091,0.517,2.67,0.89,3.933,0.89
				c1.895,0,2.899-0.516,2.899-2.124c0-1.521-1.034-1.981-2.957-2.44c-3.129-0.746-4.306-1.837-4.306-4.276
				c0-2.67,1.464-4.019,4.793-4.019c1.378,0,2.842,0.259,3.846,0.718l-0.402,1.923c-0.89-0.373-2.267-0.689-3.387-0.689
				c-1.808,0-2.498,0.488-2.498,1.923c0,1.493,0.689,1.78,2.727,2.325c2.784,0.747,4.535,1.636,4.535,4.363
				C182.674,107.577,180.494,108.84,177.537,108.84z"/>
			<path fill="#FFFFFF" d="M192.95,108.41c-0.603,0.229-2.009,0.43-2.928,0.43c-2.439,0-3.473-1.35-3.473-3.559v-9.014h-2.469
				v-1.951h2.469v-3.473l2.411-0.345v3.818h4.047l-0.201,1.951h-3.846v8.898c0,1.32,0.316,1.722,1.636,1.722
				c0.574,0,1.406-0.114,2.153-0.287L192.95,108.41z"/>
			<path fill="#FFFFFF" d="M200.928,108.84c-4.133,0-5.999-3.1-5.999-7.406c0-4.305,1.866-7.406,5.999-7.406
				c4.133,0,5.999,3.101,5.999,7.406C206.927,105.74,205.061,108.84,200.928,108.84z M200.928,95.98
				c-2.985,0-3.588,2.44-3.588,5.454c0,3.014,0.603,5.454,3.588,5.454c2.985,0,3.588-2.44,3.588-5.454
				C204.516,98.421,203.913,95.98,200.928,95.98z"/>
		</g>
	</g>
</g>
</svg>
