<?xml version="1.0" encoding="utf-8"?>
<!-- Generator: Adobe Illustrator 17.0.0, SVG Export Plug-In . SVG Version: 6.00 Build 0)  -->
<!DOCTYPE svg PUBLIC "-//W3C//DTD SVG 1.1//EN" "http://www.w3.org/Graphics/SVG/1.1/DTD/svg11.dtd">
<svg version="1.1" xmlns="http://www.w3.org/2000/svg" xmlns:xlink="http://www.w3.org/1999/xlink" x="0px" y="0px"
	 width="384.001px" height="192.001px" viewBox="0 0 384.001 192.001" enable-background="new 0 0 384.001 192.001"
	 xml:space="preserve">
<g id="Background_Color">
	<rect x="0" y="0" fill-rule="evenodd" clip-rule="evenodd" fill="#0F2648" width="384.001" height="192.001"/>
</g>
<g id="Artwork">
	<g>
		<g>
			<path fill="#FFFFFF" d="M157.356,122.099c-1.797,0-3.457-0.726-4.286-1.417v7.258h-2.904v-23.365h2.454l0.242,1.729
				c0.795-1.106,2.662-2.074,4.701-2.074c5.046,0,6.36,4.078,6.36,8.917C163.923,118.54,162.126,122.099,157.356,122.099z
				 M153.07,118.401c0.864,0.691,2.246,1.348,3.871,1.348c3.352,0,4.078-2.627,4.078-6.636c0-4.009-0.622-6.532-3.871-6.532
				c-1.728,0-3.111,0.829-4.078,1.693V118.401z"/>
			<path fill="#FFFFFF" d="M176.226,106.995c-1.936,0.38-3.906,1.037-5.357,1.797v12.926h-2.903v-17.143h2.385l0.311,2.005
				c1.037-1.037,2.938-2.04,5.185-2.247L176.226,106.995z"/>
			<path fill="#FFFFFF" d="M180.787,114.426c0.172,3.629,1.071,5.357,4.562,5.357c1.832,0,3.733-0.45,5.046-0.968l0.449,2.212
				c-1.417,0.587-3.664,1.037-5.53,1.037c-6.188,0-7.432-4.216-7.432-9.021c0-4.943,1.624-8.813,6.878-8.813
				c4.665,0,6.601,3.283,6.601,7.396v2.799H180.787z M180.787,112.145h7.776v-0.622c0-3.18-1.003-5.115-3.836-5.115
				C181.513,106.408,180.821,108.723,180.787,112.145z"/>
			<path fill="#FFFFFF" d="M199.587,122.064c-1.729,0-3.94-0.38-5.426-1.141l0.553-2.281c1.313,0.622,3.214,1.071,4.734,1.071
				c2.282,0,3.491-0.622,3.491-2.558c0-1.832-1.244-2.385-3.56-2.938c-3.767-0.898-5.184-2.212-5.184-5.15
				c0-3.214,1.763-4.838,5.771-4.838c1.659,0,3.422,0.311,4.632,0.864l-0.484,2.315c-1.071-0.449-2.73-0.829-4.078-0.829
				c-2.178,0-3.007,0.587-3.007,2.316c0,1.797,0.829,2.143,3.284,2.799c3.352,0.899,5.461,1.97,5.461,5.253
				C205.774,120.544,203.148,122.064,199.587,122.064z"/>
			<path fill="#FFFFFF" d="M218.146,121.546c-0.726,0.276-2.419,0.518-3.525,0.518c-2.938,0-4.182-1.624-4.182-4.286v-10.853h-2.973
				v-2.351h2.973v-4.182l2.903-0.415v4.597h4.874l-0.242,2.351h-4.631v10.714c0,1.59,0.38,2.074,1.97,2.074
				c0.691,0,1.694-0.138,2.592-0.346L218.146,121.546z"/>
			<path fill="#FFFFFF" d="M227.753,122.064c-4.977,0-7.224-3.733-7.224-8.917c0-5.185,2.247-8.917,7.224-8.917
				c4.978,0,7.224,3.732,7.224,8.917C234.977,118.332,232.731,122.064,227.753,122.064z M227.753,106.581
				c-3.594,0-4.32,2.938-4.32,6.567c0,3.629,0.726,6.567,4.32,6.567c3.595,0,4.321-2.938,4.321-6.567
				C232.074,109.518,231.349,106.581,227.753,106.581z"/>
		</g>
		<path fill="#FFFFFF" d="M134.504,90.999V77.607h4.495l0.673-5.219h-5.169v-3.331c0-1.51,0.419-2.541,2.586-2.541l2.764-0.001
			v-4.668c-0.478-0.064-2.119-0.206-4.027-0.206c-3.984,0-6.713,2.432-6.713,6.898v3.849h-4.091v5.219h4.091v13.392H134.504z"/>
		<path fill="#FFFFFF" d="M178.797,86.763c-2.52,0-3.266-1.242-3.266-3.413h10.434c0.2-8.15-1.504-11.211-7.963-11.211
			c-6.062,0-8.089,3.146-8.089,9.336c0,6.417,2.524,9.745,8.559,9.745c2.755,0,4.477-0.304,6.948-0.885l-1.053-4.292
			C181.927,86.571,180.778,86.763,178.797,86.763z M175.532,79.541c0-1.935,0.477-3.119,2.471-3.119
			c2.137,0,2.444,1.694,2.444,3.119H175.532z"/>
		<path fill="#FFFFFF" d="M155.956,81.678c0,6.549,2.025,9.541,8.057,9.541c1.407,0,2.573-0.151,5.126-0.733l-1.054-4.425
			c-1.635,0.319-2.453,0.459-3.855,0.459c-1.553,0-2.88-0.512-2.88-4.841c0-4.199,1.232-4.837,2.88-4.837
			c1.402,0,2.395,0.142,3.967,0.43l0.941-4.396c-2.553-0.583-3.719-0.737-5.126-0.737C157.98,72.138,155.956,75.13,155.956,81.678z"
			/>
		<path fill="#FFFFFF" d="M146.592,72.151c0,0-3.144-0.013-4.751,0.383l-0.594,4.817c1.561-0.459,4.679-0.512,4.679-0.512
			c2.939,0,2.657,1.415,2.657,2.829v0.824c0,0-1.067-0.383-3.634-0.383c-3.847,0-6.207,1.738-6.207,5.535
			c0,3.221,2.085,5.547,5.521,5.547c1.258,0,2.916-0.194,5.055-1.396l0.381,1.202h4.255v-11.29
			C153.954,74.473,153.044,72.151,146.592,72.151z M148.583,86.384c-0.838,0.39-1.668,0.77-2.813,0.77
			c-1.069,0-1.962-0.54-1.962-1.584c0-1.046,0.965-1.652,2.115-1.652c1.297,0,2.66,0.382,2.66,0.382V86.384z"/>
		<path fill="#FFFFFF" d="M197.683,72.138c-1.429,0-3.003,0.233-4.291,0.69v-10.47l-5.545,0.715v27.158
			c3.058,0.478,5.438,0.977,8.209,0.98c5.955,0.008,8.333-3.189,8.333-10.248C204.389,75.327,202.605,72.138,197.683,72.138z
			 M195.489,86.641c-0.761,0-1.189-0.007-2.021-0.182v-8.814c0.836-0.389,1.661-0.619,2.809-0.619c1.919,0,2.466,1.111,2.466,4.415
			C198.744,85.435,198.242,86.641,195.489,86.641z"/>
		<polygon fill="#FFFFFF" points="258.978,72.407 252.888,72.407 247.735,80.691 247.735,62.358 242.189,63.073 242.189,90.963 
			247.735,90.963 247.735,82.241 252.888,90.963 258.978,90.963 253.352,81.446 		"/>
		<path fill="#FFFFFF" d="M222.567,81.661c0-6.127-1.729-9.504-8.318-9.511v-0.001c-0.003,0-0.007,0.001-0.011,0.001
			c-0.003,0-0.007-0.001-0.01-0.001v0.001c-6.59,0.007-8.319,3.384-8.319,9.511c0,6.126,1.729,9.503,8.319,9.511l0,0
			c0.003,0,0.006,0,0.01,0c0.004,0,0.007,0,0.011,0l0,0C220.837,91.165,222.567,87.788,222.567,81.661z M214.249,86.468v-0.001
			c-0.003,0-0.007,0.001-0.011,0.001c-0.003,0-0.007-0.001-0.01-0.001v0.001c-1.908,0-2.698-0.527-2.698-4.807
			c0-4.281,0.79-4.762,2.698-4.762V76.9c0.003,0,0.006,0,0.01,0c0.004,0,0.007,0,0.011,0v-0.001c1.908,0,2.698,0.481,2.698,4.762
			C216.946,85.941,216.156,86.468,214.249,86.468z"/>
		<path fill="#FFFFFF" d="M240.624,81.661c0-6.127-1.729-9.504-8.319-9.511v-0.001c-0.003,0-0.007,0.001-0.01,0.001
			c-0.003,0-0.007-0.001-0.01-0.001v0.001c-6.59,0.007-8.319,3.384-8.319,9.511c0,6.126,1.729,9.503,8.319,9.511l0,0
			c0.002,0,0.006,0,0.01,0c0.003,0,0.007,0,0.01,0l0,0C238.895,91.165,240.624,87.788,240.624,81.661z M232.305,86.468v-0.001
			c-0.003,0-0.007,0.001-0.01,0.001c-0.003,0-0.007-0.001-0.01-0.001v0.001c-1.908,0-2.698-0.527-2.698-4.807
			c0-4.281,0.79-4.762,2.698-4.762V76.9c0.002,0,0.006,0,0.01,0c0.003,0,0.007,0,0.01,0v-0.001c1.908,0,2.698,0.481,2.698,4.762
			C235.003,85.941,234.213,86.468,232.305,86.468z"/>
	</g>
</g>
</svg>
