<?xml version="1.0" encoding="utf-8"?>
<!-- Generator: Adobe Illustrator 17.0.0, SVG Export Plug-In . SVG Version: 6.00 Build 0)  -->
<!DOCTYPE svg PUBLIC "-//W3C//DTD SVG 1.1//EN" "http://www.w3.org/Graphics/SVG/1.1/DTD/svg11.dtd">
<svg version="1.1" xmlns="http://www.w3.org/2000/svg" xmlns:xlink="http://www.w3.org/1999/xlink" x="0px" y="0px"
	 width="384.001px" height="192.001px" viewBox="0 0 384.001 192.001" enable-background="new 0 0 384.001 192.001"
	 xml:space="preserve">
<g id="Background_Color">
	<rect x="0" y="0" fill-rule="evenodd" clip-rule="evenodd" fill="#0F2648" width="384.001" height="192.001"/>
</g>
<g id="Artwork">
	<g>
		<g>
			<path fill="#FFFFFF" d="M192.529,74.88h-37.413c-1.326,0-2.413,1.087-2.413,2.414v37.413c0,1.327,1.087,2.413,2.413,2.413h37.413
				c1.328,0,2.415-1.086,2.415-2.413V77.295C194.944,75.967,193.857,74.88,192.529,74.88z"/>
			<g>
				<polyline fill-rule="evenodd" clip-rule="evenodd" fill="#FFFFFF" points="129.183,117.116 123.679,100.761 123.679,94.386 
					129.903,77.55 142.3,81.511 145.818,92.932 141.256,100.761 135.766,117.116 				"/>
				<path fill="#4967A9" d="M146.528,74.88h-37.573c-1.288,0-2.331,1.044-2.331,2.332v37.573c0,1.287,1.044,2.331,2.331,2.331
					h20.228v-16.356h-5.504v-6.374h5.504v-4.701c0-5.455,3.332-8.426,8.198-8.426c2.331,0,4.334,0.174,4.919,0.251v5.701
					l-3.375,0.002c-2.647,0-3.159,1.258-3.159,3.103v4.069h6.312l-0.822,6.374h-5.49v16.356h10.762c1.287,0,2.331-1.044,2.331-2.331
					V77.212C148.859,75.924,147.815,74.88,146.528,74.88z"/>
			</g>
			<g>
				<path fill="#FFFFFF" d="M212.694,105.917c-1.498,0-2.88-0.604-3.572-1.181v6.048h-2.419V91.316h2.045l0.201,1.44
					c0.663-0.921,2.218-1.728,3.917-1.728c4.205,0,5.299,3.398,5.299,7.43C218.165,102.951,216.669,105.917,212.694,105.917z
					 M209.123,102.835c0.72,0.576,1.872,1.123,3.225,1.123c2.794,0,3.398-2.189,3.398-5.529s-0.518-5.443-3.226-5.443
					c-1.439,0-2.591,0.691-3.398,1.412V102.835z"/>
				<path fill="#FFFFFF" d="M228.419,93.332c-1.613,0.316-3.254,0.864-4.464,1.497V105.6h-2.419V91.316h1.987l0.259,1.67
					c0.864-0.864,2.448-1.699,4.32-1.871L228.419,93.332z"/>
				<path fill="#FFFFFF" d="M232.221,99.523c0.144,3.024,0.892,4.464,3.801,4.464c1.526,0,3.11-0.375,4.205-0.807l0.374,1.843
					c-1.181,0.49-3.053,0.864-4.608,0.864c-5.155,0-6.192-3.513-6.192-7.516c0-4.118,1.354-7.344,5.731-7.344
					c3.888,0,5.501,2.736,5.501,6.163v2.332H232.221z M232.221,97.623h6.479v-0.519c0-2.649-0.835-4.262-3.197-4.262
					C232.825,92.842,232.249,94.772,232.221,97.623z"/>
				<path fill="#FFFFFF" d="M247.887,105.888c-1.44,0-3.283-0.316-4.521-0.95l0.461-1.9c1.094,0.518,2.679,0.893,3.945,0.893
					c1.901,0,2.909-0.518,2.909-2.131c0-1.526-1.037-1.987-2.967-2.448c-3.139-0.749-4.32-1.843-4.32-4.291
					c0-2.678,1.469-4.032,4.81-4.032c1.382,0,2.851,0.259,3.859,0.72l-0.403,1.929c-0.893-0.375-2.275-0.691-3.398-0.691
					c-1.814,0-2.505,0.49-2.505,1.93c0,1.497,0.691,1.785,2.735,2.332c2.794,0.749,4.551,1.642,4.551,4.378
					C253.042,104.621,250.854,105.888,247.887,105.888z"/>
				<path fill="#FFFFFF" d="M263.353,105.456c-0.605,0.23-2.017,0.432-2.938,0.432c-2.448,0-3.485-1.353-3.485-3.571v-9.043h-2.476
					v-1.958h2.476v-3.485l2.42-0.345v3.83h4.061l-0.202,1.958h-3.859v8.927c0,1.325,0.317,1.728,1.642,1.728
					c0.576,0,1.411-0.115,2.16-0.288L263.353,105.456z"/>
				<path fill="#FFFFFF" d="M271.359,105.888c-4.147,0-6.019-3.11-6.019-7.43s1.872-7.43,6.019-7.43c4.147,0,6.02,3.11,6.02,7.43
					S275.506,105.888,271.359,105.888z M271.359,92.986c-2.995,0-3.6,2.448-3.6,5.472c0,3.023,0.605,5.472,3.6,5.472
					c2.995,0,3.6-2.448,3.6-5.472C274.958,95.434,274.354,92.986,271.359,92.986z"/>
			</g>
			<circle fill="#0F2648" cx="176.223" cy="84.276" r="1.503"/>
			<circle fill="#0F2648" cx="180.157" cy="88.21" r="1.67"/>
			<circle fill="#0F2648" cx="184.093" cy="92.145" r="1.837"/>
			<circle fill="#0F2648" cx="188.027" cy="96.08" r="2.004"/>
			<circle fill="#0F2648" cx="168.354" cy="84.276" r="1.337"/>
			<circle fill="#0F2648" cx="172.288" cy="88.21" r="1.504"/>
			<circle fill="#0F2648" cx="176.223" cy="92.145" r="1.67"/>
			<circle fill="#0F2648" cx="180.158" cy="96.08" r="1.837"/>
			<circle fill="#0F2648" cx="184.093" cy="100.014" r="2.004"/>
			<circle fill="#0F2648" cx="160.485" cy="84.276" r="1.17"/>
			<circle fill="#0F2648" cx="164.419" cy="88.21" r="1.336"/>
			<circle fill="#0F2648" cx="168.354" cy="92.144" r="1.503"/>
			<circle fill="#0F2648" cx="172.289" cy="96.079" r="1.671"/>
			<circle fill="#0F2648" cx="176.223" cy="100.014" r="1.837"/>
			<circle fill="#0F2648" cx="180.158" cy="103.948" r="2.004"/>
			<circle fill="#0F2648" cx="168.354" cy="100.013" r="1.337"/>
			<circle fill="#0F2648" cx="164.419" cy="103.948" r="1.336"/>
			<circle fill="#0F2648" cx="160.486" cy="107.882" r="1.337"/>
			<circle fill="#0F2648" cx="168.354" cy="107.883" r="1.337"/>
			<circle fill="#0F2648" cx="176.223" cy="107.883" r="1.337"/>
			<circle fill="#0F2648" cx="172.289" cy="103.948" r="1.336"/>
		</g>
	</g>
</g>
</svg>
