<?xml version="1.0" encoding="utf-8"?>
<!-- Generator: Adobe Illustrator 17.0.0, SVG Export Plug-In . SVG Version: 6.00 Build 0)  -->
<!DOCTYPE svg PUBLIC "-//W3C//DTD SVG 1.1//EN" "http://www.w3.org/Graphics/SVG/1.1/DTD/svg11.dtd">
<svg version="1.1" xmlns="http://www.w3.org/2000/svg" xmlns:xlink="http://www.w3.org/1999/xlink" x="0px" y="0px"
	 width="384.001px" height="192.001px" viewBox="0 0 384.001 192.001" enable-background="new 0 0 384.001 192.001"
	 xml:space="preserve">
<g id="Background_Color">
	<rect x="0" y="0" fill-rule="evenodd" clip-rule="evenodd" fill="#0F2648" width="384.001" height="192.001"/>
</g>
<g id="Artwork">
	<g>
		<g>
			<polyline fill-rule="evenodd" clip-rule="evenodd" fill="#FFFFFF" points="165.963,122.401 159.082,101.954 159.082,93.985 
				166.863,72.938 182.361,77.889 186.758,92.167 181.055,101.954 174.192,122.401 			"/>
			<path fill="#4967A9" d="M187.646,69.6h-46.972c-1.61,0-2.915,1.305-2.915,2.915v46.972c0,1.609,1.305,2.914,2.915,2.914h25.288
				v-20.447h-6.881v-7.969h6.881v-5.877c0-6.819,4.165-10.533,10.249-10.533c2.914,0,5.419,0.217,6.149,0.314v7.128l-4.22,0.002
				c-3.309,0-3.949,1.572-3.949,3.879v5.087h7.891l-1.027,7.969h-6.863v20.447h13.455c1.609,0,2.914-1.305,2.914-2.914V72.515
				C190.561,70.905,189.256,69.6,187.646,69.6z"/>
		</g>
		<path fill="#FFFFFF" d="M243.223,69.6h-46.767c-1.657,0-3.016,1.359-3.016,3.018v46.766c0,1.659,1.358,3.017,3.016,3.017h46.767
			c1.66,0,3.018-1.358,3.018-3.017V72.618C246.241,70.959,244.883,69.6,243.223,69.6z"/>
		<circle fill="#0F2648" cx="222.84" cy="81.345" r="1.879"/>
		<circle fill="#0F2648" cx="227.758" cy="86.263" r="2.087"/>
		<circle fill="#0F2648" cx="232.677" cy="91.181" r="2.296"/>
		<circle fill="#0F2648" cx="237.594" cy="96.099" r="2.505"/>
		<circle fill="#0F2648" cx="213.004" cy="81.345" r="1.671"/>
		<circle fill="#0F2648" cx="217.922" cy="86.263" r="1.88"/>
		<circle fill="#0F2648" cx="222.84" cy="91.181" r="2.087"/>
		<circle fill="#0F2648" cx="227.758" cy="96.099" r="2.296"/>
		<circle fill="#0F2648" cx="232.676" cy="101.017" r="2.505"/>
		<circle fill="#0F2648" cx="203.168" cy="81.345" r="1.462"/>
		<circle fill="#0F2648" cx="208.086" cy="86.263" r="1.671"/>
		<circle fill="#0F2648" cx="213.005" cy="91.18" r="1.879"/>
		<circle fill="#0F2648" cx="217.922" cy="96.099" r="2.088"/>
		<circle fill="#0F2648" cx="222.84" cy="101.017" r="2.296"/>
		<circle fill="#0F2648" cx="227.758" cy="105.934" r="2.505"/>
		<circle fill="#0F2648" cx="213.004" cy="101.016" r="1.671"/>
		<circle fill="#0F2648" cx="208.086" cy="105.934" r="1.671"/>
		<circle fill="#0F2648" cx="203.169" cy="110.851" r="1.671"/>
		<circle fill="#0F2648" cx="213.004" cy="110.852" r="1.671"/>
		<path fill="#0F2648" d="M224.023,112.034c-0.654,0.653-1.711,0.653-2.364,0c-0.651-0.651-0.651-1.709,0-2.361
			c0.653-0.653,1.71-0.653,2.364,0C224.673,110.324,224.673,111.383,224.023,112.034z"/>
		<circle fill="#0F2648" cx="217.923" cy="105.934" r="1.671"/>
	</g>
</g>
</svg>
