<?xml version="1.0" encoding="utf-8"?>
<!-- Generator: Adobe Illustrator 17.0.0, SVG Export Plug-In . SVG Version: 6.00 Build 0)  -->
<!DOCTYPE svg PUBLIC "-//W3C//DTD SVG 1.1//EN" "http://www.w3.org/Graphics/SVG/1.1/DTD/svg11.dtd">
<svg version="1.1" xmlns="http://www.w3.org/2000/svg" xmlns:xlink="http://www.w3.org/1999/xlink" x="0px" y="0px"
	 width="384.002px" height="192.001px" viewBox="0 0 384.002 192.001" enable-background="new 0 0 384.002 192.001"
	 xml:space="preserve">
<g id="Background_Color">
	<rect x="0" y="0" fill-rule="evenodd" clip-rule="evenodd" fill="#E1E1E1" width="384.002" height="192.001"/>
</g>
<g id="Artwork">
	<g>
		<g>
			<path d="M215.382,53.285h-46.764c-1.657,0-3.017,1.358-3.017,3.018v46.764c0,1.658,1.359,3.017,3.017,3.017h46.764
				c1.66,0,3.018-1.358,3.018-3.017V56.303C218.4,54.644,217.042,53.285,215.382,53.285z"/>
			<circle fill="#FFFFFF" cx="195.001" cy="65.029" r="1.879"/>
			<circle fill="#FFFFFF" cx="199.918" cy="69.947" r="2.087"/>
			<circle fill="#FFFFFF" cx="204.837" cy="74.864" r="2.296"/>
			<circle fill="#FFFFFF" cx="209.754" cy="79.783" r="2.505"/>
			<circle fill="#FFFFFF" cx="185.165" cy="65.029" r="1.671"/>
			<circle fill="#FFFFFF" cx="190.082" cy="69.946" r="1.88"/>
			<circle fill="#FFFFFF" cx="195" cy="74.865" r="2.087"/>
			<circle fill="#FFFFFF" cx="199.918" cy="79.783" r="2.296"/>
			<circle fill="#FFFFFF" cx="204.836" cy="84.701" r="2.505"/>
			<circle fill="#FFFFFF" cx="175.328" cy="65.029" r="1.462"/>
			<circle fill="#FFFFFF" cx="180.247" cy="69.946" r="1.671"/>
			<circle fill="#FFFFFF" cx="185.165" cy="74.864" r="1.879"/>
			<circle fill="#FFFFFF" cx="190.083" cy="79.782" r="2.088"/>
			<circle fill="#FFFFFF" cx="195" cy="84.7" r="2.296"/>
			<circle fill="#FFFFFF" cx="199.918" cy="89.618" r="2.505"/>
			<circle fill="#FFFFFF" cx="185.165" cy="84.7" r="1.671"/>
			<circle fill="#FFFFFF" cx="180.247" cy="89.618" r="1.671"/>
			<circle fill="#FFFFFF" cx="175.33" cy="94.535" r="1.671"/>
			<circle fill="#FFFFFF" cx="185.165" cy="94.536" r="1.671"/>
			<path fill="#FFFFFF" d="M196.183,95.717c-0.654,0.653-1.711,0.653-2.365,0c-0.651-0.651-0.651-1.709,0-2.361
				c0.653-0.653,1.71-0.653,2.365,0C196.833,94.008,196.833,95.066,196.183,95.717z"/>
			<circle fill="#FFFFFF" cx="190.083" cy="89.618" r="1.671"/>
		</g>
		<g>
			<path d="M168.523,133.21c-1.198,0-2.304-0.484-2.856-0.944v4.839h-1.936v-15.577h1.636l0.161,1.152
				c0.53-0.737,1.774-1.383,3.134-1.383c3.364,0,4.24,2.719,4.24,5.945C172.901,130.837,171.703,133.21,168.523,133.21z
				 M165.667,130.744c0.576,0.461,1.497,0.899,2.58,0.899c2.235,0,2.719-1.751,2.719-4.424c0-2.673-0.415-4.355-2.581-4.355
				c-1.152,0-2.074,0.553-2.718,1.129V130.744z"/>
			<path d="M181.103,123.141c-1.291,0.253-2.604,0.691-3.571,1.198v8.618h-1.936v-11.429h1.59l0.208,1.336
				c0.691-0.691,1.958-1.359,3.456-1.498L181.103,123.141z"/>
			<path d="M184.144,128.095c0.115,2.419,0.714,3.571,3.041,3.571c1.222,0,2.489-0.299,3.364-0.645l0.3,1.475
				c-0.945,0.392-2.442,0.691-3.687,0.691c-4.124,0-4.954-2.811-4.954-6.014c0-3.295,1.083-5.877,4.586-5.877
				c3.11,0,4.401,2.189,4.401,4.932v1.866H184.144z M184.144,126.574h5.185v-0.415c0-2.12-0.669-3.41-2.558-3.41
				C184.628,122.749,184.167,124.293,184.144,126.574z"/>
			<path d="M196.677,133.187c-1.151,0-2.626-0.254-3.617-0.76l0.368-1.521c0.876,0.415,2.143,0.715,3.157,0.715
				c1.521,0,2.327-0.415,2.327-1.705c0-1.221-0.829-1.59-2.373-1.959c-2.512-0.599-3.457-1.475-3.457-3.433
				c0-2.143,1.175-3.226,3.848-3.226c1.106,0,2.281,0.208,3.087,0.577l-0.322,1.543c-0.714-0.299-1.82-0.553-2.719-0.553
				c-1.452,0-2.005,0.391-2.005,1.543c0,1.198,0.553,1.429,2.189,1.867c2.235,0.599,3.64,1.313,3.64,3.502
				C200.802,132.173,199.051,133.187,196.677,133.187z"/>
			<path d="M209.051,132.842c-0.484,0.184-1.613,0.345-2.351,0.345c-1.958,0-2.788-1.083-2.788-2.857v-7.236h-1.982v-1.566h1.982
				v-2.788l1.936-0.277v3.065h3.249l-0.162,1.566h-3.087v7.143c0,1.06,0.253,1.383,1.313,1.383c0.46,0,1.129-0.092,1.728-0.23
				L209.051,132.842z"/>
			<path d="M215.455,133.187c-3.318,0-4.815-2.489-4.815-5.945c0-3.455,1.498-5.945,4.815-5.945c3.318,0,4.816,2.489,4.816,5.945
				C220.271,130.698,218.773,133.187,215.455,133.187z M215.455,122.864c-2.396,0-2.88,1.959-2.88,4.377
				c0,2.42,0.484,4.378,2.88,4.378c2.396,0,2.88-1.958,2.88-4.378C218.335,124.823,217.852,122.864,215.455,122.864z"/>
		</g>
	</g>
</g>
</svg>
