<?xml version="1.0" encoding="utf-8"?>
<!-- Generator: Adobe Illustrator 17.0.0, SVG Export Plug-In . SVG Version: 6.00 Build 0)  -->
<!DOCTYPE svg PUBLIC "-//W3C//DTD SVG 1.1//EN" "http://www.w3.org/Graphics/SVG/1.1/DTD/svg11.dtd">
<svg version="1.1" id="Layer_1" xmlns="http://www.w3.org/2000/svg" xmlns:xlink="http://www.w3.org/1999/xlink" x="0px" y="0px"
	 width="500.824px" height="310.843px" viewBox="0 0 500.824 310.843" enable-background="new 0 0 500.824 310.843"
	 xml:space="preserve">
<rect y="0" fill="#0F2648" width="500.824" height="310.843"/>
<g>
	<g>
		<path fill="#FFFFFF" d="M112.455,190.22c-4.11,0-7.906-1.66-9.803-3.241v16.601h-6.641v-53.441h5.612l0.553,3.953
			c1.819-2.53,6.088-4.744,10.753-4.744c11.541,0,14.544,9.329,14.544,20.396C127.474,182.077,123.364,190.22,112.455,190.22z
			 M102.652,181.761c1.977,1.581,5.138,3.083,8.853,3.083c7.668,0,9.328-6.007,9.328-15.177c0-9.171-1.422-14.943-8.854-14.943
			c-3.953,0-7.114,1.898-9.328,3.874V181.761z"/>
		<path fill="#FFFFFF" d="M155.617,155.673c-4.426,0.869-8.933,2.371-12.253,4.111v29.565h-6.641v-39.21h5.456l0.71,4.585
			c2.372-2.37,6.721-4.663,11.859-5.138L155.617,155.673z"/>
		<path fill="#FFFFFF" d="M166.052,172.67c0.396,8.301,2.452,12.254,10.436,12.254c4.189,0,8.538-1.028,11.541-2.213l1.028,5.058
			c-3.241,1.344-8.381,2.373-12.649,2.373c-14.151,0-16.997-9.646-16.997-20.634c0-11.304,3.715-20.159,15.733-20.159
			c10.672,0,15.099,7.511,15.099,16.918v6.403H166.052z M166.052,167.453h17.788v-1.424c0-7.274-2.292-11.7-8.775-11.7
			C167.713,154.329,166.132,159.626,166.052,167.453z"/>
		<path fill="#FFFFFF" d="M209.057,190.142c-3.953,0-9.012-0.871-12.412-2.611l1.265-5.216c3.004,1.422,7.353,2.452,10.831,2.452
			c5.216,0,7.984-1.424,7.984-5.85c0-4.192-2.847-5.455-8.143-6.721c-8.617-2.055-11.857-5.06-11.857-11.779
			c0-7.353,4.031-11.068,13.201-11.068c3.794,0,7.827,0.712,10.593,1.975l-1.106,5.298c-2.45-1.029-6.246-1.898-9.328-1.898
			c-4.981,0-6.878,1.344-6.878,5.298c0,4.11,1.897,4.901,7.51,6.402c7.669,2.056,12.491,4.506,12.491,12.017
			C223.207,186.662,217.198,190.142,209.057,190.142z"/>
		<path fill="#FFFFFF" d="M251.508,188.955c-1.66,0.632-5.534,1.186-8.063,1.186c-6.72,0-9.566-3.717-9.566-9.805v-24.821h-6.798
			v-5.377h6.798v-9.565l6.641-0.948v10.514h11.146l-0.553,5.377H240.52v24.507c0,3.635,0.869,4.744,4.506,4.744
			c1.581,0,3.873-0.318,5.929-0.792L251.508,188.955z"/>
		<path fill="#FFFFFF" d="M273.484,190.142c-11.384,0-16.523-8.538-16.523-20.397c0-11.858,5.139-20.396,16.523-20.396
			c11.383,0,16.522,8.538,16.522,20.396C290.007,181.604,284.867,190.142,273.484,190.142z M273.484,154.724
			c-8.222,0-9.883,6.719-9.883,15.021c0,8.301,1.662,15.021,9.883,15.021c8.221,0,9.882-6.721,9.882-15.021
			C283.366,161.443,281.705,154.724,273.484,154.724z"/>
	</g>
	<g>
		<g>
			<circle fill="#5890FF" cx="360.221" cy="111.96" r="4.501"/>
			<circle fill="#5890FF" cx="372.588" cy="124.327" r="5"/>
			<circle fill="#5890FF" cx="384.955" cy="136.694" r="5.499"/>
			<circle fill="#5890FF" cx="397.322" cy="149.061" r="5.998"/>
			<circle fill="#1EDCFF" cx="335.488" cy="111.96" r="4.001"/>
			<circle fill="#1EDCFF" cx="347.854" cy="124.326" r="4.501"/>
			<circle fill="#1EDCFF" cx="360.222" cy="136.694" r="5"/>
			<circle fill="#1EDCFF" cx="372.588" cy="149.061" r="5.499"/>
			<circle fill="#1EDCFF" cx="384.955" cy="161.428" r="5.998"/>
			<circle fill="#FFFFFF" cx="310.754" cy="111.959" r="3.502"/>
			<circle fill="#FFFFFF" cx="323.121" cy="124.326" r="4.001"/>
			<circle fill="#FFFFFF" cx="335.488" cy="136.693" r="4.501"/>
			<circle fill="#FFFFFF" cx="347.855" cy="149.06" r="5"/>
			<circle fill="#FFFFFF" cx="360.221" cy="161.427" r="5.499"/>
			<circle fill="#FFFFFF" cx="372.589" cy="173.794" r="5.998"/>
		</g>
		<g>
			<circle fill="#5890FF" cx="335.489" cy="161.427" r="4.001"/>
			<circle fill="#5890FF" cx="323.122" cy="173.794" r="4.001"/>
			<circle fill="#5890FF" cx="310.755" cy="186.16" r="4.002"/>
			<circle fill="#5890FF" cx="335.489" cy="186.161" r="4.001"/>
			<circle fill="#5890FF" cx="360.221" cy="186.162" r="4.001"/>
			<circle fill="#5890FF" cx="347.855" cy="173.794" r="4.001"/>
		</g>
	</g>
</g>
</svg>
