<?xml version="1.0" encoding="utf-8"?>
<!-- Generator: Adobe Illustrator 17.0.0, SVG Export Plug-In . SVG Version: 6.00 Build 0)  -->
<!DOCTYPE svg PUBLIC "-//W3C//DTD SVG 1.1//EN" "http://www.w3.org/Graphics/SVG/1.1/DTD/svg11.dtd">
<svg version="1.1" xmlns="http://www.w3.org/2000/svg" xmlns:xlink="http://www.w3.org/1999/xlink" x="0px" y="0px"
	 width="384.002px" height="192.001px" viewBox="0 0 384.002 192.001" enable-background="new 0 0 384.002 192.001"
	 xml:space="preserve">
<g id="Background_Color">
	<rect x="0" y="0" fill-rule="evenodd" clip-rule="evenodd" fill="#FFFFFF" width="384.002" height="192.001"/>
</g>
<g id="Artwork">
	<g>
		<path fill="#4967A9" d="M169.616,74.88h-37.577c-1.288,0-2.331,1.044-2.331,2.332v37.578c0,1.287,1.043,2.332,2.331,2.332h20.23
			v-16.358h-5.505v-6.375h5.505v-4.701c0-5.456,3.332-8.427,8.199-8.427c2.331,0,4.335,0.174,4.919,0.252v5.702l-3.376,0.001
			c-2.646,0-3.159,1.258-3.159,3.104v4.07h6.312l-0.822,6.375h-5.491v16.358h10.764c1.288,0,2.331-1.045,2.331-2.332V77.212
			C171.947,75.924,170.903,74.88,169.616,74.88z"/>
		<g>
			<path fill="#0F2648" d="M189.611,105.917c-1.498,0-2.88-0.605-3.571-1.181v6.048h-2.419V91.315h2.044l0.202,1.44
				c0.663-0.921,2.218-1.728,3.917-1.728c4.205,0,5.299,3.398,5.299,7.43C195.083,102.951,193.586,105.917,189.611,105.917z
				 M186.04,102.835c0.72,0.576,1.872,1.123,3.226,1.123c2.794,0,3.398-2.189,3.398-5.53c0-3.34-0.518-5.443-3.226-5.443
				c-1.439,0-2.591,0.691-3.398,1.411V102.835z"/>
			<path fill="#0F2648" d="M205.336,93.331c-1.613,0.316-3.254,0.864-4.464,1.498V105.6h-2.419V91.315h1.987l0.259,1.67
				c0.864-0.864,2.448-1.699,4.32-1.872L205.336,93.331z"/>
			<path fill="#0F2648" d="M209.137,99.523c0.144,3.024,0.893,4.464,3.802,4.464c1.526,0,3.109-0.374,4.205-0.807l0.374,1.843
				c-1.181,0.49-3.052,0.864-4.608,0.864c-5.155,0-6.191-3.513-6.191-7.516c0-4.118,1.353-7.344,5.731-7.344
				c3.888,0,5.501,2.735,5.501,6.163v2.333H209.137z M209.137,97.622h6.479v-0.519c0-2.649-0.835-4.262-3.196-4.262
				C209.742,92.842,209.166,94.772,209.137,97.622z"/>
			<path fill="#0F2648" d="M224.804,105.888c-1.44,0-3.283-0.316-4.521-0.95l0.461-1.901c1.094,0.519,2.679,0.893,3.945,0.893
				c1.901,0,2.909-0.519,2.909-2.131c0-1.526-1.037-1.987-2.966-2.448c-3.139-0.749-4.32-1.843-4.32-4.291
				c0-2.678,1.469-4.032,4.809-4.032c1.383,0,2.851,0.259,3.859,0.72l-0.403,1.929c-0.893-0.375-2.275-0.691-3.398-0.691
				c-1.814,0-2.505,0.49-2.505,1.93c0,1.497,0.691,1.786,2.736,2.333c2.794,0.749,4.551,1.642,4.551,4.378
				C229.96,104.621,227.77,105.888,224.804,105.888z"/>
			<path fill="#0F2648" d="M240.27,105.456c-0.605,0.23-2.017,0.432-2.939,0.432c-2.447,0-3.484-1.353-3.484-3.571v-9.043h-2.477
				v-1.959h2.477v-3.484l2.42-0.346v3.83h4.06l-0.202,1.959h-3.858v8.928c0,1.324,0.316,1.728,1.642,1.728
				c0.575,0,1.411-0.115,2.16-0.288L240.27,105.456z"/>
			<path fill="#0F2648" d="M248.276,105.888c-4.147,0-6.02-3.11-6.02-7.43c0-4.32,1.872-7.43,6.02-7.43
				c4.147,0,6.019,3.11,6.019,7.43C254.295,102.777,252.423,105.888,248.276,105.888z M248.276,92.986c-2.995,0-3.6,2.448-3.6,5.472
				c0,3.023,0.605,5.472,3.6,5.472c2.995,0,3.6-2.448,3.6-5.472C251.876,95.434,251.271,92.986,248.276,92.986z"/>
		</g>
	</g>
</g>
</svg>
